%TF.GenerationSoftware,Altium Limited,Altium Designer,23.11.1 (41)*%
G04 Layer_Color=16711935*
%FSLAX45Y45*%
%MOMM*%
%TF.SameCoordinates,7081611A-E9FA-4801-99CF-350105B7A270*%
%TF.FilePolarity,Negative*%
%TF.FileFunction,Soldermask,Bot*%
%TF.Part,Single*%
G01*
G75*
%TA.AperFunction,ComponentPad*%
%ADD42R,1.60000X1.60000*%
%ADD43C,1.30000*%
%ADD44R,1.30000X1.30000*%
%ADD68C,2.41300*%
%ADD69C,2.74320*%
%ADD70R,2.74320X2.74320*%
%ADD71C,2.20345*%
%ADD72C,2.00320*%
%ADD73C,2.35320*%
%ADD74C,2.71780*%
%ADD75C,2.48920*%
%ADD76C,1.80320*%
%ADD77R,2.48920X2.48920*%
D42*
X2892500Y8400000D02*
D03*
D43*
X8320000Y7867500D02*
D03*
X4617500Y7920000D02*
D03*
D44*
X8320000Y9367500D02*
D03*
X4617500Y9420000D02*
D03*
D68*
X9482500Y8872500D02*
D03*
X8784000Y8243494D02*
D03*
D69*
X3842285Y7087154D02*
D03*
X2705000Y892500D02*
D03*
X4704996D02*
D03*
X1542290Y7087154D02*
D03*
D70*
X705004Y892500D02*
D03*
D71*
X10452499Y642220D02*
D03*
X10960499D02*
D03*
X13697299D02*
D03*
X13189299D02*
D03*
X6347300D02*
D03*
X6855300D02*
D03*
X7715700D02*
D03*
X8223700D02*
D03*
X9084099Y650000D02*
D03*
X9592099D02*
D03*
X11820899Y642220D02*
D03*
X12328899D02*
D03*
X17500000Y9104630D02*
D03*
Y8596630D02*
D03*
Y7481570D02*
D03*
Y6973570D02*
D03*
Y5939790D02*
D03*
Y5431790D02*
D03*
Y4298950D02*
D03*
Y3790950D02*
D03*
Y2688590D02*
D03*
Y2180590D02*
D03*
X747300Y9550220D02*
D03*
Y9042220D02*
D03*
D72*
X10057500Y9458750D02*
D03*
Y8081250D02*
D03*
D73*
X572300Y8072220D02*
D03*
Y8412220D02*
D03*
X1922300D02*
D03*
Y8072220D02*
D03*
D74*
X14732001Y3929380D02*
D03*
X14986000Y4429760D02*
D03*
X16002000D02*
D03*
X14986000Y3429000D02*
D03*
X16002000D02*
D03*
X14732001Y2405380D02*
D03*
X14986000Y2905760D02*
D03*
X16002000D02*
D03*
X14986000Y1905000D02*
D03*
X16002000D02*
D03*
X14650275Y8798307D02*
D03*
X14904276Y9298687D02*
D03*
X15920274D02*
D03*
X14904276Y8297927D02*
D03*
X15920274D02*
D03*
X14732001Y7231380D02*
D03*
X14986000Y7731760D02*
D03*
X16002000D02*
D03*
X14986000Y6731000D02*
D03*
X16002000D02*
D03*
X14732001Y5595620D02*
D03*
X14986000Y6096000D02*
D03*
X16002000D02*
D03*
X14986000Y5095240D02*
D03*
X16002000D02*
D03*
D75*
X5957502Y8020000D02*
D03*
X6957500Y9219998D02*
D03*
Y8020000D02*
D03*
D76*
X3642500Y8500000D02*
D03*
D77*
X5957502Y9219998D02*
D03*
%TF.MD5,236dfc7a14529fa2ec3a2632c923a148*%
M02*
