%TF.GenerationSoftware,Altium Limited,Altium Designer,23.11.1 (41)*%
G04 Layer_Physical_Order=1*
G04 Layer_Color=255*
%FSLAX45Y45*%
%MOMM*%
%TF.SameCoordinates,7081611A-E9FA-4801-99CF-350105B7A270*%
%TF.FilePolarity,Positive*%
%TF.FileFunction,Copper,L1,Top,Signal*%
%TF.Part,Single*%
G01*
G75*
%TA.AperFunction,SMDPad,CuDef*%
%ADD10R,2.00000X2.00000*%
%ADD11R,0.80000X1.00000*%
%ADD12R,0.70000X0.60000*%
%ADD13R,1.00000X0.80000*%
%ADD14R,2.00000X2.00000*%
%ADD15R,1.70000X1.00000*%
%TA.AperFunction,TestPad*%
G04:AMPARAMS|DCode=16|XSize=0.9mm|YSize=0.8mm|CornerRadius=0.04mm|HoleSize=0mm|Usage=FLASHONLY|Rotation=90.000|XOffset=0mm|YOffset=0mm|HoleType=Round|Shape=RoundedRectangle|*
%AMROUNDEDRECTD16*
21,1,0.90000,0.72000,0,0,90.0*
21,1,0.82000,0.80000,0,0,90.0*
1,1,0.08000,0.36000,0.41000*
1,1,0.08000,0.36000,-0.41000*
1,1,0.08000,-0.36000,-0.41000*
1,1,0.08000,-0.36000,0.41000*
%
%ADD16ROUNDEDRECTD16*%
%TA.AperFunction,SMDPad,CuDef*%
%ADD17R,0.91000X1.14000*%
%ADD18R,1.00000X1.80000*%
%ADD19R,0.60000X0.20000*%
%ADD20R,0.35000X0.99000*%
%ADD21R,0.75000X0.30000*%
%ADD22R,0.30000X0.75000*%
%ADD23R,0.30000X1.20000*%
%ADD24R,1.20000X0.30000*%
%ADD25R,1.55000X0.60000*%
%TA.AperFunction,Conductor*%
%ADD26C,1.00000*%
%ADD27C,1.20000*%
%ADD28C,0.20000*%
%ADD29C,0.30000*%
%ADD30C,0.75000*%
%ADD31C,0.50000*%
%TA.AperFunction,NonConductor*%
%ADD32C,0.25400*%
%ADD33C,0.20320*%
%TA.AperFunction,Conductor*%
%ADD34C,0.25000*%
%ADD35C,0.35000*%
%TA.AperFunction,ComponentPad*%
%ADD36C,2.20980*%
%ADD37C,2.54000*%
%ADD38R,2.54000X2.54000*%
%ADD39C,2.00025*%
%ADD40C,1.80000*%
%ADD41C,2.15000*%
%ADD42R,1.60000X1.60000*%
%ADD43C,1.30000*%
%ADD44R,1.30000X1.30000*%
%ADD45C,2.51460*%
%ADD46C,2.28600*%
%ADD47C,1.60000*%
%ADD48R,2.28600X2.28600*%
%TA.AperFunction,ViaPad*%
%ADD49C,0.45000*%
G36*
X14916975Y9147557D02*
X14919160D01*
X14948358Y9153365D01*
X14975862Y9164757D01*
X14996060Y9178253D01*
X15206613Y8967700D01*
X15201353Y8955000D01*
X14500000D01*
Y9236810D01*
X14766324D01*
X14770345Y9227100D01*
X14786885Y9202347D01*
X14807935Y9181297D01*
X14832687Y9164757D01*
X14860191Y9153365D01*
X14889391Y9147557D01*
X14891576D01*
Y9298687D01*
X14916975D01*
Y9147557D01*
D02*
G37*
G36*
X1330000Y7886700D02*
X320000D01*
Y9872980D01*
X1330000D01*
Y7886700D01*
D02*
G37*
G36*
X5022500Y7767500D02*
X1715000D01*
X1715000Y8712500D01*
X4347500D01*
X4362500Y8727500D01*
Y9708750D01*
X5022500D01*
Y7767500D01*
D02*
G37*
G36*
X15331810Y8842504D02*
Y8227256D01*
X14998700Y7894146D01*
Y7731760D01*
Y7580630D01*
X15000885D01*
X15030083Y7586438D01*
X15056259Y7597280D01*
X15420470Y7233070D01*
Y6680155D01*
X14998700Y6258386D01*
Y6096000D01*
Y5944870D01*
X15000885D01*
X15030083Y5950678D01*
X15056259Y5961520D01*
X15166470Y5851309D01*
Y4648155D01*
X15096651Y4578336D01*
X15089459D01*
X15068575Y4575587D01*
X15049113Y4567526D01*
X15048837Y4567314D01*
X15030083Y4575082D01*
X15000885Y4580890D01*
X14998700D01*
Y4429760D01*
Y4278630D01*
X15000885D01*
X15030083Y4284438D01*
X15050244Y4292789D01*
X15064764Y4286775D01*
X15166470Y4185069D01*
Y3022210D01*
X15130708Y2986450D01*
X15113847D01*
X15103391Y3002100D01*
X15082339Y3023150D01*
X15057587Y3039690D01*
X15030083Y3051082D01*
X15000885Y3056890D01*
X14998700D01*
Y2905760D01*
Y2754630D01*
X15000885D01*
X15030083Y2760438D01*
X15057587Y2771830D01*
X15082339Y2788370D01*
X15103391Y2809420D01*
X15113847Y2825070D01*
X15130708D01*
X15506470Y2449309D01*
Y1735000D01*
X14867500D01*
Y1799446D01*
X14880200Y1804707D01*
X14896519Y1788387D01*
X14929750Y1769201D01*
X14966814Y1759270D01*
X15005186D01*
X15042250Y1769201D01*
X15075481Y1788387D01*
X15102612Y1815520D01*
X15121799Y1848750D01*
X15131731Y1885814D01*
Y1924186D01*
X15121799Y1961250D01*
X15102612Y1994480D01*
X15075481Y2021613D01*
X15042250Y2040799D01*
X15005186Y2050730D01*
X14966814D01*
X14929750Y2040799D01*
X14896519Y2021613D01*
X14880200Y2005293D01*
X14867500Y2010554D01*
Y2348613D01*
X14867799Y2349130D01*
X14877730Y2386194D01*
Y2424566D01*
X14867799Y2461630D01*
X14867500Y2462147D01*
Y2792569D01*
X14880200Y2797830D01*
X14889661Y2788370D01*
X14914413Y2771830D01*
X14941917Y2760438D01*
X14971115Y2754630D01*
X14973300D01*
Y2905760D01*
Y3056890D01*
X14971115D01*
X14941917Y3051082D01*
X14914413Y3039690D01*
X14889661Y3023150D01*
X14880200Y3013690D01*
X14867500Y3018951D01*
Y3323446D01*
X14880200Y3328707D01*
X14896519Y3312387D01*
X14929750Y3293201D01*
X14966814Y3283270D01*
X15005186D01*
X15042250Y3293201D01*
X15075481Y3312387D01*
X15102612Y3339520D01*
X15121799Y3372750D01*
X15131731Y3409814D01*
Y3448186D01*
X15121799Y3485250D01*
X15102612Y3518480D01*
X15075481Y3545613D01*
X15042250Y3564799D01*
X15005186Y3574730D01*
X14966814D01*
X14929750Y3564799D01*
X14896519Y3545613D01*
X14880200Y3529293D01*
X14867500Y3534554D01*
Y3872613D01*
X14867799Y3873130D01*
X14877730Y3910194D01*
Y3948566D01*
X14867799Y3985630D01*
X14867500Y3986147D01*
Y4316569D01*
X14880200Y4321830D01*
X14889661Y4312370D01*
X14914413Y4295830D01*
X14941917Y4284438D01*
X14971115Y4278630D01*
X14973300D01*
Y4429760D01*
Y4580890D01*
X14971115D01*
X14941917Y4575082D01*
X14914413Y4563690D01*
X14889661Y4547150D01*
X14880200Y4537690D01*
X14867500Y4542951D01*
Y4989686D01*
X14880200Y4994947D01*
X14896519Y4978627D01*
X14929750Y4959441D01*
X14966814Y4949510D01*
X15005186D01*
X15042250Y4959441D01*
X15075481Y4978627D01*
X15102612Y5005760D01*
X15121799Y5038990D01*
X15131731Y5076054D01*
Y5114426D01*
X15121799Y5151490D01*
X15102612Y5184720D01*
X15075481Y5211853D01*
X15042250Y5231039D01*
X15005186Y5240970D01*
X14966814D01*
X14929750Y5231039D01*
X14896519Y5211853D01*
X14880200Y5195533D01*
X14867500Y5200794D01*
Y5538853D01*
X14867799Y5539370D01*
X14877730Y5576434D01*
Y5614806D01*
X14867799Y5651870D01*
X14867500Y5652387D01*
Y5982809D01*
X14880200Y5988070D01*
X14889661Y5978610D01*
X14914413Y5962070D01*
X14941917Y5950678D01*
X14971115Y5944870D01*
X14973300D01*
Y6096000D01*
Y6247130D01*
X14971115D01*
X14941917Y6241322D01*
X14914413Y6229930D01*
X14889661Y6213390D01*
X14880200Y6203930D01*
X14867500Y6209191D01*
Y6300000D01*
X15287500Y6720000D01*
X15287500Y7057500D01*
X14772501Y7572500D01*
Y7840000D01*
X15207500Y8275000D01*
Y8948853D01*
X15220200Y8954114D01*
X15331810Y8842504D01*
D02*
G37*
G36*
X5055000Y5745000D02*
X2877500D01*
Y7492500D01*
X5055000D01*
Y5745000D01*
D02*
G37*
G36*
X15675000Y9396663D02*
Y2512904D01*
X15662300Y2510378D01*
X15657040Y2523078D01*
X15644215Y2539789D01*
X15278246Y2905760D01*
X15304216Y2931731D01*
X15317039Y2948442D01*
X15325101Y2967903D01*
X15327850Y2988788D01*
Y4218492D01*
X15325101Y4239377D01*
X15317039Y4258838D01*
X15304216Y4275549D01*
X15167114Y4412651D01*
X15170094Y4427632D01*
X15170418Y4427766D01*
X15187131Y4440590D01*
X15304216Y4557676D01*
X15317039Y4574387D01*
X15325101Y4593848D01*
X15327850Y4614732D01*
Y5884732D01*
X15325101Y5905617D01*
X15317039Y5925078D01*
X15304218Y5941789D01*
X15137131Y6108875D01*
Y6110885D01*
X15131322Y6140083D01*
X15124673Y6156133D01*
X15558215Y6589676D01*
X15571039Y6606387D01*
X15579100Y6625848D01*
X15581850Y6646732D01*
Y7266492D01*
X15579100Y7287377D01*
X15571039Y7306838D01*
X15558215Y7323549D01*
X15137131Y7744635D01*
Y7746645D01*
X15131322Y7775843D01*
X15124673Y7791893D01*
X15469557Y8136776D01*
X15482381Y8153488D01*
X15490440Y8172949D01*
X15493190Y8193833D01*
Y8875927D01*
X15490440Y8896811D01*
X15482381Y8916272D01*
X15469557Y8932983D01*
X15071950Y9330590D01*
X15055238Y9343413D01*
X15048106Y9346367D01*
X15038205Y9370274D01*
X15030472Y9381846D01*
X15036348Y9393105D01*
X15665932Y9405555D01*
X15675000Y9396663D01*
D02*
G37*
G36*
X5072500Y497500D02*
X132655D01*
X123687Y506493D01*
X137117Y5262500D01*
X5072500D01*
Y497500D01*
D02*
G37*
%LPC*%
G36*
X763811Y9675633D02*
X760000D01*
Y9562920D01*
X872713D01*
Y9566731D01*
X864166Y9598628D01*
X847655Y9627225D01*
X824305Y9650575D01*
X795708Y9667086D01*
X763811Y9675633D01*
D02*
G37*
G36*
X734600D02*
X730789D01*
X698892Y9667086D01*
X670295Y9650575D01*
X646945Y9627225D01*
X630434Y9598628D01*
X621888Y9566731D01*
Y9562920D01*
X734600D01*
Y9675633D01*
D02*
G37*
G36*
X872713Y9537520D02*
X760000D01*
Y9424808D01*
X763811D01*
X795708Y9433354D01*
X824305Y9449865D01*
X847655Y9473215D01*
X864166Y9501813D01*
X872713Y9533709D01*
Y9537520D01*
D02*
G37*
G36*
X734600D02*
X621888D01*
Y9533709D01*
X630434Y9501813D01*
X646945Y9473215D01*
X670295Y9449865D01*
X698892Y9433354D01*
X730789Y9424808D01*
X734600D01*
Y9537520D01*
D02*
G37*
G36*
X763100Y9162233D02*
X731500D01*
X700977Y9154054D01*
X673611Y9138254D01*
X651266Y9115910D01*
X635466Y9088543D01*
X627288Y9058020D01*
Y9026420D01*
X635466Y8995897D01*
X651266Y8968531D01*
X673611Y8946186D01*
X700977Y8930387D01*
X731500Y8922208D01*
X763100D01*
X793623Y8930387D01*
X820989Y8946186D01*
X843334Y8968531D01*
X859134Y8995897D01*
X867312Y9026420D01*
Y9058020D01*
X859134Y9088543D01*
X843334Y9115910D01*
X820989Y9138254D01*
X793623Y9154054D01*
X763100Y9162233D01*
D02*
G37*
G36*
X589797Y8545120D02*
X585000D01*
Y8424920D01*
X705200D01*
Y8429716D01*
X696143Y8463517D01*
X678647Y8493822D01*
X653903Y8518566D01*
X623598Y8536063D01*
X589797Y8545120D01*
D02*
G37*
G36*
X559600D02*
X554804D01*
X521003Y8536063D01*
X490698Y8518566D01*
X465954Y8493822D01*
X448457Y8463517D01*
X439400Y8429716D01*
Y8424920D01*
X559600D01*
Y8545120D01*
D02*
G37*
G36*
X705200Y8399520D02*
X585000D01*
Y8279320D01*
X589797D01*
X623598Y8288377D01*
X653903Y8305873D01*
X678647Y8330617D01*
X696143Y8360922D01*
X705200Y8394723D01*
Y8399520D01*
D02*
G37*
G36*
X559600D02*
X439400D01*
Y8394723D01*
X448457Y8360922D01*
X465954Y8330617D01*
X490698Y8305873D01*
X521003Y8288377D01*
X554804Y8279320D01*
X559600D01*
Y8399520D01*
D02*
G37*
G36*
X589797Y8205120D02*
X585000D01*
Y8084920D01*
X705200D01*
Y8089717D01*
X696143Y8123518D01*
X678647Y8153823D01*
X653903Y8178567D01*
X623598Y8196063D01*
X589797Y8205120D01*
D02*
G37*
G36*
X559600D02*
X554804D01*
X521003Y8196063D01*
X490698Y8178567D01*
X465954Y8153823D01*
X448457Y8123518D01*
X439400Y8089717D01*
Y8084920D01*
X559600D01*
Y8205120D01*
D02*
G37*
G36*
X705200Y8059520D02*
X585000D01*
Y7939320D01*
X589797D01*
X623598Y7948377D01*
X653903Y7965874D01*
X678647Y7990617D01*
X696143Y8020922D01*
X705200Y8054724D01*
Y8059520D01*
D02*
G37*
G36*
X559600D02*
X439400D01*
Y8054724D01*
X448457Y8020922D01*
X465954Y7990617D01*
X490698Y7965874D01*
X521003Y7948377D01*
X554804Y7939320D01*
X559600D01*
Y8059520D01*
D02*
G37*
G36*
X4707900Y9510400D02*
X4630200D01*
Y9432700D01*
X4707900D01*
Y9510400D01*
D02*
G37*
G36*
X4604800D02*
X4527100D01*
Y9432700D01*
X4604800D01*
Y9510400D01*
D02*
G37*
G36*
X4707900Y9407300D02*
X4630200D01*
Y9329600D01*
X4707900D01*
Y9407300D01*
D02*
G37*
G36*
X4604800D02*
X4527100D01*
Y9329600D01*
X4604800D01*
Y9407300D01*
D02*
G37*
G36*
X3656376Y8605400D02*
X3655200D01*
Y8512700D01*
X3747900D01*
Y8513876D01*
X3740717Y8540683D01*
X3726841Y8564717D01*
X3707217Y8584341D01*
X3683183Y8598217D01*
X3656376Y8605400D01*
D02*
G37*
G36*
X3629800D02*
X3628624D01*
X3601817Y8598217D01*
X3577783Y8584341D01*
X3558159Y8564717D01*
X3544283Y8540683D01*
X3537100Y8513876D01*
Y8512700D01*
X3629800D01*
Y8605400D01*
D02*
G37*
G36*
X1939796Y8545120D02*
X1935000D01*
Y8424920D01*
X2055200D01*
Y8429716D01*
X2046143Y8463517D01*
X2028646Y8493822D01*
X2003903Y8518566D01*
X1973598Y8536063D01*
X1939796Y8545120D01*
D02*
G37*
G36*
X1909600D02*
X1904803D01*
X1871002Y8536063D01*
X1840697Y8518566D01*
X1815953Y8493822D01*
X1798457Y8463517D01*
X1789400Y8429716D01*
Y8424920D01*
X1909600D01*
Y8545120D01*
D02*
G37*
G36*
X3747900Y8487300D02*
X3655200D01*
Y8394600D01*
X3656376D01*
X3683183Y8401783D01*
X3707217Y8415659D01*
X3726841Y8435283D01*
X3740717Y8459317D01*
X3747900Y8486123D01*
Y8487300D01*
D02*
G37*
G36*
X3629800D02*
X3537100D01*
Y8486123D01*
X3544283Y8459317D01*
X3558159Y8435283D01*
X3577783Y8415659D01*
X3601817Y8401783D01*
X3628624Y8394600D01*
X3629800D01*
Y8487300D01*
D02*
G37*
G36*
X2992500Y8500000D02*
X2792500D01*
Y8300000D01*
X2992500D01*
Y8500000D01*
D02*
G37*
G36*
X2055200Y8399520D02*
X1935000D01*
Y8279320D01*
X1939796D01*
X1973598Y8288377D01*
X2003903Y8305873D01*
X2028646Y8330617D01*
X2046143Y8360922D01*
X2055200Y8394723D01*
Y8399520D01*
D02*
G37*
G36*
X1909600D02*
X1789400D01*
Y8394723D01*
X1798457Y8360922D01*
X1815953Y8330617D01*
X1840697Y8305873D01*
X1871002Y8288377D01*
X1904803Y8279320D01*
X1909600D01*
Y8399520D01*
D02*
G37*
G36*
X1939796Y8205120D02*
X1935000D01*
Y8084920D01*
X2055200D01*
Y8089717D01*
X2046143Y8123518D01*
X2028646Y8153823D01*
X2003903Y8178567D01*
X1973598Y8196063D01*
X1939796Y8205120D01*
D02*
G37*
G36*
X1909600D02*
X1904803D01*
X1871002Y8196063D01*
X1840697Y8178567D01*
X1815953Y8153823D01*
X1798457Y8123518D01*
X1789400Y8089717D01*
Y8084920D01*
X1909600D01*
Y8205120D01*
D02*
G37*
G36*
X2055200Y8059520D02*
X1935000D01*
Y7939320D01*
X1939796D01*
X1973598Y7948377D01*
X2003903Y7965874D01*
X2028646Y7990617D01*
X2046143Y8020922D01*
X2055200Y8054724D01*
Y8059520D01*
D02*
G37*
G36*
X1909600D02*
X1789400D01*
Y8054724D01*
X1798457Y8020922D01*
X1815953Y7990617D01*
X1840697Y7965874D01*
X1871002Y7948377D01*
X1904803Y7939320D01*
X1909600D01*
Y8059520D01*
D02*
G37*
G36*
X4628691Y8005000D02*
X4606310D01*
X4584691Y7999207D01*
X4565309Y7988017D01*
X4549483Y7972191D01*
X4538293Y7952809D01*
X4532500Y7931190D01*
Y7908809D01*
X4538293Y7887191D01*
X4549483Y7867809D01*
X4565309Y7851983D01*
X4584691Y7840793D01*
X4606310Y7835000D01*
X4628691D01*
X4650309Y7840793D01*
X4669691Y7851983D01*
X4685517Y7867809D01*
X4696707Y7887191D01*
X4702500Y7908809D01*
Y7931190D01*
X4696707Y7952809D01*
X4685517Y7972191D01*
X4669691Y7988017D01*
X4650309Y7999207D01*
X4628691Y8005000D01*
D02*
G37*
G36*
X14973300Y7882890D02*
X14971115D01*
X14941917Y7877082D01*
X14914413Y7865690D01*
X14889661Y7849150D01*
X14868610Y7828100D01*
X14852071Y7803347D01*
X14840678Y7775843D01*
X14834869Y7746645D01*
Y7744460D01*
X14973300D01*
Y7882890D01*
D02*
G37*
G36*
Y7719060D02*
X14834869D01*
Y7716875D01*
X14840678Y7687677D01*
X14852071Y7660173D01*
X14868610Y7635420D01*
X14889661Y7614370D01*
X14914413Y7597830D01*
X14941917Y7586438D01*
X14971115Y7580630D01*
X14973300D01*
Y7719060D01*
D02*
G37*
G36*
X3857295Y7239554D02*
X3854985D01*
Y7099854D01*
X3994685D01*
Y7102164D01*
X3988828Y7131607D01*
X3977340Y7159342D01*
X3960662Y7184303D01*
X3939434Y7205530D01*
X3914474Y7222209D01*
X3886738Y7233697D01*
X3857295Y7239554D01*
D02*
G37*
G36*
X3829585D02*
X3827275D01*
X3797831Y7233697D01*
X3770096Y7222209D01*
X3745136Y7205530D01*
X3723908Y7184303D01*
X3707230Y7159342D01*
X3695742Y7131607D01*
X3689885Y7102164D01*
Y7099854D01*
X3829585D01*
Y7239554D01*
D02*
G37*
G36*
X3994685Y7074454D02*
X3854985D01*
Y6934754D01*
X3857295D01*
X3886738Y6940610D01*
X3914474Y6952099D01*
X3939434Y6968777D01*
X3960662Y6990004D01*
X3977340Y7014965D01*
X3988828Y7042700D01*
X3994685Y7072144D01*
Y7074454D01*
D02*
G37*
G36*
X3829585D02*
X3689885D01*
Y7072144D01*
X3695742Y7042700D01*
X3707230Y7014965D01*
X3723908Y6990004D01*
X3745136Y6968777D01*
X3770096Y6952099D01*
X3797831Y6940610D01*
X3827275Y6934754D01*
X3829585D01*
Y7074454D01*
D02*
G37*
G36*
X857404Y1044900D02*
X717704D01*
Y905200D01*
X857404D01*
Y1044900D01*
D02*
G37*
G36*
X692304D02*
X552604D01*
Y905200D01*
X692304D01*
Y1044900D01*
D02*
G37*
G36*
X4724349Y1039500D02*
X4685643D01*
X4648256Y1029482D01*
X4614736Y1010129D01*
X4587367Y982760D01*
X4568014Y949240D01*
X4557996Y911853D01*
Y873147D01*
X4568014Y835760D01*
X4587367Y802240D01*
X4614736Y774871D01*
X4648256Y755518D01*
X4685643Y745500D01*
X4724349D01*
X4761736Y755518D01*
X4795256Y774871D01*
X4822625Y802240D01*
X4841978Y835760D01*
X4851996Y873147D01*
Y911853D01*
X4841978Y949240D01*
X4822625Y982760D01*
X4795256Y1010129D01*
X4761736Y1029482D01*
X4724349Y1039500D01*
D02*
G37*
G36*
X2724353D02*
X2685647D01*
X2648260Y1029482D01*
X2614740Y1010129D01*
X2587371Y982760D01*
X2568018Y949240D01*
X2558000Y911853D01*
Y873147D01*
X2568018Y835760D01*
X2587371Y802240D01*
X2614740Y774871D01*
X2648260Y755518D01*
X2685647Y745500D01*
X2724353D01*
X2761740Y755518D01*
X2795260Y774871D01*
X2822629Y802240D01*
X2841982Y835760D01*
X2852000Y873147D01*
Y911853D01*
X2841982Y949240D01*
X2822629Y982760D01*
X2795260Y1010129D01*
X2761740Y1029482D01*
X2724353Y1039500D01*
D02*
G37*
G36*
X857404Y879800D02*
X717704D01*
Y740100D01*
X857404D01*
Y879800D01*
D02*
G37*
G36*
X692304D02*
X552604D01*
Y740100D01*
X692304D01*
Y879800D01*
D02*
G37*
%LPD*%
D10*
X7015000Y5837500D02*
D03*
X6397500Y4980000D02*
D03*
X6402500Y5237500D02*
D03*
X9027500Y5505000D02*
D03*
X11155000Y4255000D02*
D03*
X11105941Y3753844D02*
D03*
X6647300Y6017220D02*
D03*
X8792500Y3200000D02*
D03*
X8030000D02*
D03*
X8100000Y4030000D02*
D03*
Y3625000D02*
D03*
X6100000Y4250000D02*
D03*
X6600000Y3400000D02*
D03*
X6100000D02*
D03*
Y3700000D02*
D03*
X6105971Y3987220D02*
D03*
X7265000Y3762500D02*
D03*
X10350000Y6800000D02*
D03*
X9294017Y6800001D02*
D03*
X9750000Y6800000D02*
D03*
X8317500Y9760000D02*
D03*
X8100000Y6577500D02*
D03*
Y6850000D02*
D03*
Y7400000D02*
D03*
X6647300Y5742220D02*
D03*
X7250000Y4362500D02*
D03*
X6647300Y5467220D02*
D03*
D11*
X7187500Y6015000D02*
D03*
X7037500D02*
D03*
X7077500Y4160000D02*
D03*
X7227500D02*
D03*
X6760000Y4867500D02*
D03*
X6610000D02*
D03*
X7995000Y4545000D02*
D03*
X8145000D02*
D03*
X8087500Y4350000D02*
D03*
X8237500D02*
D03*
X6890000Y3620000D02*
D03*
X7040000D02*
D03*
X7610000Y4562500D02*
D03*
X7760000D02*
D03*
X10025000Y6450000D02*
D03*
X9875000D02*
D03*
X10425000D02*
D03*
X10275000D02*
D03*
X9375000D02*
D03*
X9225000D02*
D03*
X9425000Y6050000D02*
D03*
X9275000D02*
D03*
X10907160Y3952240D02*
D03*
X10757160D02*
D03*
X10907160Y4191000D02*
D03*
X10757160D02*
D03*
X10907160Y4404360D02*
D03*
X10757160D02*
D03*
X10907160Y4615180D02*
D03*
X10757160D02*
D03*
X10907160Y4846320D02*
D03*
X10757160D02*
D03*
X8627500Y4205000D02*
D03*
X8477500D02*
D03*
X7295000Y4565000D02*
D03*
X7445000D02*
D03*
X7509750Y6383358D02*
D03*
X7659750D02*
D03*
D12*
X7907699Y4186227D02*
D03*
Y4286227D02*
D03*
X7470000Y4265000D02*
D03*
Y4365000D02*
D03*
D13*
X6820000Y4347500D02*
D03*
Y4497500D02*
D03*
X10030000Y4455000D02*
D03*
Y4605000D02*
D03*
X9785000Y4452500D02*
D03*
Y4602500D02*
D03*
X9592500Y4447500D02*
D03*
Y4597500D02*
D03*
X9380000Y4447500D02*
D03*
Y4597500D02*
D03*
X7772500Y3880000D02*
D03*
Y4030000D02*
D03*
X7750000Y3475000D02*
D03*
Y3625000D02*
D03*
X8480000Y4872500D02*
D03*
Y5022500D02*
D03*
X9190000Y4717500D02*
D03*
Y4867500D02*
D03*
X6980000Y4730000D02*
D03*
Y4880000D02*
D03*
X8497300Y5867220D02*
D03*
Y5717220D02*
D03*
D14*
X9265000Y5747500D02*
D03*
X11211025Y5041937D02*
D03*
X8150000Y6260000D02*
D03*
X10650000Y6800000D02*
D03*
D15*
X7075000Y7010000D02*
D03*
Y7200000D02*
D03*
D16*
X7630000Y4380000D02*
D03*
Y4195000D02*
D03*
X7775000Y4380000D02*
D03*
Y4195000D02*
D03*
D17*
X9588000Y5150000D02*
D03*
X9715000D02*
D03*
X9842000D02*
D03*
X9969000D02*
D03*
X10096000D02*
D03*
X10223000D02*
D03*
X10350000D02*
D03*
X10477000D02*
D03*
X9588000Y5772000D02*
D03*
X9715000D02*
D03*
X9842000D02*
D03*
X9969000D02*
D03*
X10096000D02*
D03*
X10223000D02*
D03*
X10350000D02*
D03*
X10477000D02*
D03*
D18*
X7398960Y7269480D02*
D03*
X7406580Y6878320D02*
D03*
X7716580D02*
D03*
X7708960Y7269480D02*
D03*
D19*
X7632300Y6232220D02*
D03*
Y6152220D02*
D03*
X7762300Y6232220D02*
D03*
X7632300Y6192220D02*
D03*
X7762300Y6152220D02*
D03*
Y6192220D02*
D03*
D20*
X7697300D02*
D03*
D21*
X6952300Y3987220D02*
D03*
X6542300D02*
D03*
D22*
X6897300Y3857220D02*
D03*
X6597300Y4117220D02*
D03*
X6697300Y3857220D02*
D03*
X6797300D02*
D03*
X6897300Y4117220D02*
D03*
X6797300D02*
D03*
X6697300D02*
D03*
X6597300Y3857220D02*
D03*
X6847300D02*
D03*
X6747300D02*
D03*
X6647300D02*
D03*
X6847300Y4117220D02*
D03*
X6747300D02*
D03*
X6647300D02*
D03*
D23*
X7847299Y5892219D02*
D03*
X7897299D02*
D03*
X7997299D02*
D03*
X7697300D02*
D03*
X7597300D02*
D03*
X7347300Y4742221D02*
D03*
X7947299D02*
D03*
X7347300Y5892219D02*
D03*
X7747299D02*
D03*
X7797299D02*
D03*
X7947299D02*
D03*
X7397300Y4742221D02*
D03*
X7447300D02*
D03*
X7497300D02*
D03*
X7547300D02*
D03*
X7597300D02*
D03*
X7647300D02*
D03*
X7697300D02*
D03*
X7747299D02*
D03*
X7797299D02*
D03*
X7847299D02*
D03*
X7897299D02*
D03*
X7997299D02*
D03*
X8047299D02*
D03*
X8097299D02*
D03*
Y5892219D02*
D03*
X8047299D02*
D03*
X7647300D02*
D03*
X7547300D02*
D03*
X7497300D02*
D03*
X7447300D02*
D03*
X7397300D02*
D03*
D24*
X7147300Y4942221D02*
D03*
X8297299Y5042221D02*
D03*
Y5692219D02*
D03*
X7147300D02*
D03*
Y5642219D02*
D03*
Y5592219D02*
D03*
Y5542220D02*
D03*
Y5492220D02*
D03*
Y5442220D02*
D03*
Y5392220D02*
D03*
Y5342220D02*
D03*
Y5292220D02*
D03*
Y5242220D02*
D03*
Y5192220D02*
D03*
Y5142220D02*
D03*
Y5092220D02*
D03*
Y5042221D02*
D03*
Y4992221D02*
D03*
X8297299Y4942221D02*
D03*
Y4992221D02*
D03*
Y5092220D02*
D03*
Y5142220D02*
D03*
Y5192220D02*
D03*
Y5242220D02*
D03*
Y5292220D02*
D03*
Y5342220D02*
D03*
Y5392220D02*
D03*
Y5442220D02*
D03*
Y5492220D02*
D03*
Y5542220D02*
D03*
Y5592219D02*
D03*
Y5642219D02*
D03*
D25*
X12024360Y4798060D02*
D03*
Y4671060D02*
D03*
Y4544060D02*
D03*
Y4417060D02*
D03*
Y4290060D02*
D03*
Y4163060D02*
D03*
Y4036060D02*
D03*
Y3909060D02*
D03*
X11484360D02*
D03*
Y4036060D02*
D03*
Y4163060D02*
D03*
Y4290060D02*
D03*
Y4417060D02*
D03*
Y4544060D02*
D03*
Y4671060D02*
D03*
Y4798060D02*
D03*
D26*
X8317500Y9370000D02*
X8320000Y9367500D01*
X8317500Y9370000D02*
Y9760000D01*
X8784000Y8243494D02*
Y8903500D01*
X8320000Y9367500D02*
X8784000Y8903500D01*
X7105378Y9365000D02*
X8317500D01*
X8320000Y9367500D01*
X6960376Y9219998D02*
X7105378Y9365000D01*
X6957500Y9219998D02*
X6960376D01*
X8079750Y6597750D02*
X8100000Y6577500D01*
X7366580Y6918320D02*
X7406580D01*
X12132160Y3840232D02*
X12223410Y3748983D01*
X7406580Y6878320D02*
Y6918320D01*
Y6833420D02*
Y6878320D01*
X7642250Y6597750D02*
X8079750D01*
X7642250Y6530250D02*
Y6597750D01*
X7406580Y6833420D02*
X7642250Y6597750D01*
X7075000Y7010000D02*
X7274900D01*
X7366580Y6918320D01*
X5075002Y9222498D02*
X5955000D01*
X4617500Y9420000D02*
X4877500D01*
X5075002Y9222498D01*
X572300Y8072220D02*
Y8412220D01*
X436880Y8547640D02*
X572300Y8412220D01*
X495459Y9309100D02*
X506180D01*
X436880Y8547640D02*
Y9250521D01*
X495459Y9309100D01*
X506180D02*
X747300Y9550220D01*
D27*
X272794Y9990000D02*
X9110000D01*
X9482500Y9617500D01*
X202500Y9919706D02*
X272794Y9990000D01*
X202500Y1448065D02*
Y9919706D01*
X9482500Y8872500D02*
Y9617500D01*
X8140000Y6617500D02*
X8545000D01*
X9997270Y8069770D02*
X10029784D01*
X8545000Y6617500D02*
X9997270Y8069770D01*
X10052744Y8092730D02*
X10111406D01*
X10235848Y8100848D02*
X11452500Y9317500D01*
X10119525Y8100848D02*
X10235848D01*
X10029784Y8069770D02*
X10052744Y8092730D01*
X11452500Y9317500D02*
X14885461D01*
X10111406Y8092730D02*
X10119525Y8100848D01*
X8075001Y7622500D02*
X8320000Y7867500D01*
X2077636Y7622500D02*
X8075001D01*
X1542290Y7087154D02*
X2077636Y7622500D01*
X202500Y1448065D02*
X660219Y990347D01*
X15014894Y9273533D02*
X15412500Y8875927D01*
Y8193833D02*
Y8875927D01*
X14986000Y7767333D02*
X15412500Y8193833D01*
X14885461Y9317500D02*
X14929430Y9273533D01*
X8100000Y6577500D02*
X8140000Y6617500D01*
X15247160Y2988788D02*
Y4218492D01*
X15164133Y2905760D02*
X15247160Y2988788D01*
X14986000Y2905760D02*
X15164133D01*
X15587160Y2482732D01*
X14342500Y927500D02*
X15122501D01*
X12223410Y3046591D02*
Y3748983D01*
Y3046591D02*
X14342500Y927500D01*
X15122501D02*
X15587160Y1392160D01*
Y2482732D01*
X14986000Y4429760D02*
X15021573D01*
X15087303Y4364030D02*
X15101622D01*
X15011154Y7706606D02*
X15061046D01*
X15011154Y6070846D02*
X15061046D01*
X15089459Y4497646D02*
X15130074D01*
X14986000Y6131573D02*
X15501160Y6646732D01*
X14986000Y7731760D02*
Y7767333D01*
X15061046Y6070846D02*
X15247160Y5884732D01*
X15501160Y6646732D02*
Y7266492D01*
X15061046Y7706606D02*
X15501160Y7266492D01*
X15247160Y4614732D02*
Y5884732D01*
X15101622Y4364030D02*
X15247160Y4218492D01*
X14929430Y9273533D02*
X15014894D01*
X14986000Y7731760D02*
X15011154Y7706606D01*
X15021573Y4429760D02*
X15087303Y4364030D01*
X14986000Y6096000D02*
X15011154Y6070846D01*
X15130074Y4497646D02*
X15247160Y4614732D01*
X15021573Y4429760D02*
X15089459Y4497646D01*
X14986000Y6096000D02*
Y6131573D01*
X3807285Y7099654D02*
X6507153D01*
X6592500Y7185000D01*
X6867500D01*
X16002000Y6731000D02*
X17257430D01*
X17500000Y6973570D01*
X17459988Y7543237D02*
X17500000Y7503225D01*
X17287241Y7731760D02*
X17459988Y7559012D01*
X17500000Y7481570D02*
Y7503225D01*
X17459988Y7543237D02*
Y7559012D01*
X16002000Y7731760D02*
X17287241D01*
X15920274Y9298687D02*
X15955849D01*
X16046324Y9389163D02*
X17280836D01*
X15955849Y9298687D02*
X16046324Y9389163D01*
X17280836D02*
X17484688Y9185312D01*
Y9119942D02*
Y9185312D01*
Y9119942D02*
X17500000Y9104630D01*
X17176143Y8272773D02*
X17500000Y8596630D01*
X15945428Y8272773D02*
X17176143D01*
X15920274Y8297927D02*
X15945428Y8272773D01*
X16011024Y3429000D02*
X17138049D01*
X17500000Y3790950D01*
X17343790Y6096000D02*
X17500000Y5939790D01*
X16002000Y6096000D02*
X17343790D01*
X17484688Y5292688D02*
Y5416478D01*
X16002000Y5095240D02*
X17287241D01*
X17484688Y5292688D01*
Y5416478D02*
X17500000Y5431790D01*
X16002000Y1905000D02*
X17224409D01*
X17500000Y2180590D01*
X15937791Y2921000D02*
X17267590D01*
X17500000Y2688590D01*
X17353951Y4445000D02*
X17500000Y4298950D01*
X16002000Y4429760D02*
X16017239Y4445000D01*
X17353951D01*
D28*
X7797299Y5814793D02*
Y5892219D01*
X7510000Y4072500D02*
X7542500Y4040000D01*
X7647500D01*
X7746208Y4138708D01*
X6957300Y3992220D02*
X7724720D01*
X7762500Y4030000D02*
X7772500D01*
Y4025000D02*
X7920000D01*
X6952300Y3987220D02*
X6957300Y3992220D01*
X7724720D02*
X7762500Y4030000D01*
X7746208Y4166209D02*
X7775000Y4195000D01*
X7746208Y4138708D02*
Y4166209D01*
X7447300Y4742221D02*
Y4842300D01*
X7450000Y4845000D01*
X7661765Y4850000D02*
X7877500D01*
X7656765Y4845000D02*
X7661765Y4850000D01*
X7647300Y4842300D02*
X7650000Y4845000D01*
X7656765D01*
X7907699Y4186227D02*
X7977008D01*
X7983235Y4180000D01*
X7990000D01*
X7647300Y4742221D02*
Y4842300D01*
X7964783Y4437717D02*
X8029216Y4373284D01*
X7960000Y4452500D02*
X7964783Y4447717D01*
Y4437717D02*
Y4447717D01*
X7775000Y4195000D02*
X7783773Y4186227D01*
X7907699D01*
X6637500Y4198235D02*
X6647300Y4188435D01*
Y4117220D02*
Y4188435D01*
X6637500Y4198235D02*
Y4205000D01*
X6486983Y4250000D02*
X6600000D01*
X6665000Y4315000D01*
X7277500Y4880000D02*
Y4882500D01*
X7370000Y4975000D01*
Y5500000D01*
X7430000Y5560000D01*
X7675000D01*
X7897299Y5782299D01*
Y5892219D01*
X7997299Y5787299D02*
Y5892219D01*
X7710000Y5500000D02*
X7997299Y5787299D01*
X7517500Y5500000D02*
X7710000D01*
X6300000Y3400000D02*
X6697300Y3797300D01*
X6471390Y3778610D02*
X6550000Y3857220D01*
X6392780Y3700000D02*
X6471390Y3778610D01*
X6105971Y3987220D02*
X6542300D01*
X7960000Y6018235D02*
Y6025000D01*
X7947299Y6005534D02*
X7960000Y6018235D01*
X7947299Y5892219D02*
Y6005534D01*
X7847299Y5892219D02*
X7850000Y5894920D01*
Y5965000D02*
X7892500Y6007500D01*
X7850000Y5894920D02*
Y5965000D01*
X7933284Y4905000D02*
Y5545223D01*
X8085281Y5697219D02*
X8292299D01*
X7933284Y5545223D02*
X8085281Y5697219D01*
X8292299D02*
X8297299Y5692219D01*
X7435784Y5800281D02*
X7447500Y5811997D01*
X7249719Y5800281D02*
X7435784D01*
X7447500Y5811997D02*
Y5860000D01*
X7212500Y5837500D02*
X7249719Y5800281D01*
X7015000Y5837500D02*
X7212500D01*
X6650000Y3857220D02*
Y3960000D01*
X6712220Y5192220D02*
X7147300D01*
X6515784Y4995784D02*
X6712220Y5192220D01*
X6413284Y4995784D02*
X6515784D01*
X6397500Y4980000D02*
X6413284Y4995784D01*
X6402500Y5237500D02*
X7142580D01*
X7147300Y5242220D01*
X7651253Y4668747D02*
Y4738268D01*
X7647300Y4742221D02*
X7651253Y4738268D01*
Y4668747D02*
X7687500Y4632500D01*
Y4494068D02*
Y4632500D01*
X7660932Y4467500D02*
X7687500Y4494068D01*
X7527500Y4437500D02*
X7557500Y4467500D01*
X7660932D01*
X7325000Y4437500D02*
X7527500D01*
X7250000Y4362500D02*
X7325000Y4437500D01*
X7410000Y4905000D02*
X7933284D01*
X7347300Y4842300D02*
X7410000Y4905000D01*
X7945000Y4744520D02*
Y4893284D01*
X7933284Y4905000D02*
X7945000Y4893284D01*
Y4744520D02*
X7947299Y4742221D01*
X7347300D02*
Y4842300D01*
X7053085Y4895000D02*
X7095305Y4937221D01*
X7142300D02*
X7147300Y4942221D01*
X7095305Y4937221D02*
X7142300D01*
X8064216Y4373284D02*
X8087500Y4350000D01*
X8029216Y4373284D02*
X8064216D01*
X8087500Y4340000D02*
Y4350000D01*
X7967500Y6077500D02*
X8150000Y6260000D01*
X7647300Y5987300D02*
X7737500Y6077500D01*
X7967500D01*
X7697500Y6195000D02*
X7700000Y6192500D01*
Y6100000D02*
Y6192500D01*
X7697300Y6192220D02*
X7697500Y6192420D01*
X7635000Y6100000D02*
X7700000D01*
X7697500Y6192420D02*
Y6195000D01*
X7647300Y5892219D02*
Y5987300D01*
X7650000Y5750000D02*
X7697300Y5797300D01*
Y5892219D01*
X7747299Y6007299D02*
X7750000Y6010000D01*
X7747299Y5892219D02*
Y6007299D01*
X9032500Y5500000D02*
X9170000D01*
X9027500Y5505000D02*
X9032500Y5500000D01*
X9220000Y5702500D02*
X9262500Y5745000D01*
Y5617500D02*
Y5745000D01*
X9265000Y5747500D01*
X8622219Y5542220D02*
X8782500Y5702500D01*
X9220000D01*
X8297299Y5542220D02*
X8622219D01*
X8297299Y5492220D02*
X8664720D01*
X8677500Y5505000D01*
X9027500D01*
X8477500Y5450000D02*
X8715000D01*
X8717500Y5447500D01*
X8469720Y5442220D02*
X8477500Y5450000D01*
X8297299Y5442220D02*
X8469720D01*
X8493331Y5393331D02*
X8497500Y5397500D01*
X8298410Y5393331D02*
X8493331D01*
X8508781Y5639503D02*
X8525217D01*
X8453235Y5642500D02*
X8505784D01*
X8415735Y5605000D02*
X8453235Y5642500D01*
X8505784D02*
X8508781Y5639503D01*
X8525217D02*
X8530000Y5634720D01*
X8297299Y5592219D02*
X8402219D01*
X8415000Y5605000D01*
X8415735D01*
X11211025Y4847345D02*
Y5041937D01*
X11210000Y4846320D02*
X11211025Y4847345D01*
X8030000Y2790000D02*
Y3200000D01*
X6855300Y1615300D02*
X8030000Y2790000D01*
X6855300Y642220D02*
Y1615300D01*
X7997299Y4742221D02*
Y4839799D01*
X7997500Y4840000D01*
X8244799Y4714799D02*
Y4749721D01*
X8062500Y4637500D02*
X8167500D01*
X8244799Y4714799D01*
X8047299Y4652701D02*
Y4742221D01*
Y4652701D02*
X8062500Y4637500D01*
X7599053Y5616546D02*
X7797299Y5814793D01*
X7532500Y5616546D02*
X7599053D01*
X7597300Y5892219D02*
Y6007700D01*
X7595000Y6010000D02*
X7597300Y6007700D01*
X8232500Y4205000D02*
X8477500D01*
X8127500Y4310000D02*
X8232500Y4205000D01*
X8117500Y4310000D02*
X8127500D01*
X8087500Y4340000D02*
X8117500Y4310000D01*
X7492367Y4737288D02*
X7497300Y4742221D01*
X7492367Y4651849D02*
Y4737288D01*
X7610000Y4562500D02*
Y4567433D01*
X7492367Y4651849D02*
X7546783Y4597433D01*
X7580000D01*
X7610000Y4567433D01*
X6647300Y5742220D02*
X6755080Y5850000D01*
X6797500D01*
X7522500Y6135000D02*
X7579720Y6192220D01*
X7632300D01*
X7528341Y6232220D02*
X7632300D01*
X7659750Y6373358D02*
X7689750Y6343358D01*
X7699750D01*
X7762300Y6280808D01*
X7659750Y6373358D02*
Y6383358D01*
X7762300Y6232220D02*
Y6280808D01*
X7337503Y4646614D02*
X7347300Y4656411D01*
Y4742221D01*
X6947220Y5142220D02*
X7147300D01*
X6840000Y5035000D02*
X6947220Y5142220D01*
X6717500Y5035000D02*
X6840000D01*
X6610000Y4867500D02*
X6618284Y4875784D01*
Y4935784D01*
X6717500Y5035000D01*
X7635000Y6100000D02*
Y6152220D01*
X6928564Y4160000D02*
X7077500D01*
X6936783Y4342220D02*
Y4347500D01*
X6913284Y4144720D02*
X6928564Y4160000D01*
X6902300Y4144720D02*
X6913284D01*
X6897300Y4139720D02*
X6902300Y4144720D01*
X6897300Y4117220D02*
Y4139720D01*
X7625000Y4375000D02*
X7630000Y4380000D01*
X7446506Y4375000D02*
X7625000D01*
X7630000Y4380000D02*
Y4385000D01*
X7660000Y4415000D02*
X7665000D01*
X7744216Y4494216D01*
X7630000Y4385000D02*
X7660000Y4415000D01*
X7744216Y4494216D02*
Y4546716D01*
X7760000Y4562500D01*
X6747300Y4198284D02*
X6771516Y4222500D01*
X6772500D01*
X6747300Y4117220D02*
Y4198284D01*
X6847300Y4247300D02*
X6850000Y4250000D01*
X6847300Y4117220D02*
Y4247300D01*
X8095000Y4025000D02*
X8100000Y4030000D01*
X7920000Y4025000D02*
X8095000D01*
X7920000Y3625000D02*
X8100000D01*
X7632300Y6152220D02*
X7635000D01*
X7384784Y3750000D02*
X7434784Y3700000D01*
X7450000D01*
X7750000Y3625000D02*
X7920000D01*
X7450000Y3900000D02*
X7695000Y3655000D01*
X7720000D02*
X7750000Y3625000D01*
X7695000Y3655000D02*
X7720000D01*
X7000000Y3900000D02*
X7450000D01*
X6957220Y3857220D02*
X7000000Y3900000D01*
X6897300Y3857220D02*
X6957220D01*
X6900000Y3750000D02*
X7384784D01*
X6847503Y3802497D02*
X6900000Y3750000D01*
X6847300Y3857220D02*
X6847503Y3857017D01*
Y3802497D02*
Y3857017D01*
X6697300Y3797300D02*
Y3857220D01*
X6100000Y3400000D02*
X6300000D01*
X6747300Y3747300D02*
Y3857220D01*
X6700000Y3500000D02*
Y3700000D01*
X6747300Y3747300D01*
X6797300Y3752700D02*
Y3857220D01*
X6600000Y3400000D02*
X6700000Y3500000D01*
X6100000Y3700000D02*
X6392780D01*
X6550000Y3857220D02*
X6597300D01*
X6542300Y3987220D02*
X6542300Y3987220D01*
X6100000Y4250000D02*
X6486983D01*
X6592263Y4144720D01*
X6597300Y4117220D02*
Y4139720D01*
X6592263Y4144720D02*
X6592300D01*
X6597300Y4139720D01*
X6992219Y5642219D02*
X7147300D01*
X6817220Y5467220D02*
X6992219Y5642219D01*
X6647300Y5467220D02*
X6817220D01*
D29*
X8071680Y6878320D02*
X8100000Y6850000D01*
X7806580Y6878320D02*
X8071680D01*
X7763960Y7269480D02*
X7798960D01*
X7771580Y6878320D02*
X7806580D01*
X7419440Y6231940D02*
X7528060D01*
X10968993Y3984047D02*
X10999974Y4015027D01*
X10997160Y4191000D02*
X11191240D01*
X11210000Y4846320D02*
X11231880D01*
X10997160D02*
X11210000D01*
X11020556Y3838844D02*
X11020941D01*
X10942160Y3917240D02*
X11020556Y3838844D01*
X10932161Y3917240D02*
X10942160D01*
X10907160Y3942240D02*
X10932161Y3917240D01*
X10907160Y3942240D02*
Y3952240D01*
X11020941Y3838844D02*
X11105941Y3753844D01*
X10955506Y4191000D02*
X10997160D01*
Y4404360D02*
X11236960D01*
X10907160D02*
X10997160D01*
X10957145Y4846320D02*
X10997160D01*
Y4615180D02*
X11235653D01*
X11231880Y4846320D02*
X11280140Y4798060D01*
X10976101Y4615180D02*
X10997160D01*
X11235653D02*
X11291533Y4671060D01*
X11191240Y4191000D02*
X11402300Y4402060D01*
X11000000Y4015000D02*
X11174946D01*
X10667160Y4191000D02*
X10702160D01*
X11174946Y4015000D02*
X11421860Y4261914D01*
Y4275060D01*
X11436860Y4290060D01*
X11484360D01*
X8150000Y3197500D02*
X8167500D01*
X7036257Y4725204D02*
X7053757D01*
X7445000Y4492500D02*
Y4510000D01*
X6747500Y4497500D02*
X6765000D01*
X8480000Y4800000D02*
Y4817500D01*
X8209800Y4549720D02*
X8227300D01*
X9190000Y4627500D02*
Y4662500D01*
X6947500Y6015000D02*
X6982500D01*
X11291533Y4671060D02*
X11484360D01*
X7057300Y4992221D02*
X7092300D01*
X6697300Y4234428D02*
X6810372Y4347500D01*
X6697300Y4117220D02*
Y4234428D01*
Y4007300D02*
Y4117220D01*
X6815000Y4867500D02*
X6850000D01*
X8292500Y4350000D02*
X8327500D01*
X7125225Y3620000D02*
X7127725Y3617500D01*
X7092725Y3620000D02*
X7125225D01*
X7419750Y6383358D02*
X7454750D01*
X7280225Y4160000D02*
X7312725D01*
X7315225Y4157500D01*
X6650000Y3960000D02*
X6697300Y4007300D01*
X7467500Y4172500D02*
X7470000Y4175000D01*
Y4207500D01*
X11317500Y3905000D02*
X11352500D01*
X10667160Y3952240D02*
X10702160D01*
X10667160Y4404360D02*
X10702160D01*
X10667160Y4615180D02*
X10702160D01*
X10667160Y4846320D02*
X10702160D01*
X10477000Y5060000D02*
Y5095000D01*
X9715000Y5060000D02*
Y5095000D01*
X9969000Y5060000D02*
Y5095000D01*
X10223000Y5060000D02*
Y5095000D01*
X8489800Y5929720D02*
Y5964720D01*
X7630000Y4105000D02*
Y4140000D01*
X7837500Y4387500D02*
X7872500D01*
X10932161Y3984047D02*
X10968993D01*
X10907160Y3952240D02*
Y3959046D01*
X10932161Y3984047D01*
X11469360Y4402060D02*
X11484360Y4417060D01*
X11402300Y4402060D02*
X11469360D01*
X11376660Y4544060D02*
X11484360D01*
X11236960Y4404360D02*
X11376660Y4544060D01*
X11280140Y4798060D02*
X11484360D01*
D30*
X7708960Y7309480D02*
X7721460Y7321980D01*
X7839480Y7400000D02*
X8100000D01*
X7761460Y7321980D02*
X7839480Y7400000D01*
X7721460Y7321980D02*
X7761460D01*
X7708960Y7269480D02*
Y7309480D01*
X12092160Y3880232D02*
X12132160Y3840232D01*
X9042500Y4865000D02*
X9075000D01*
X8627500Y4450000D02*
X9042500Y4865000D01*
X8627500Y4305000D02*
Y4450000D01*
X7642250Y6530250D02*
X7659750Y6512750D01*
X7662500Y6395858D02*
X7663359D01*
X7122500Y7225546D02*
X7166434Y7269480D01*
X7398960D01*
X7075000Y7200000D02*
X7110000D01*
X7122500Y7212500D01*
Y7225546D01*
X6871967Y7189467D02*
X7064467D01*
X7075000Y7200000D01*
X6867500Y7185000D02*
X6871967Y7189467D01*
D31*
X7708960Y7269480D02*
X7763960D01*
X7716580Y6878320D02*
X7771580D01*
X13616940Y4417060D02*
X14605000Y3429000D01*
X14986000D01*
X7750000Y3875000D02*
X8260000D01*
X6830080Y6200000D02*
X7387500D01*
X6647300Y6017220D02*
X6830080Y6200000D01*
X9275000Y6050000D02*
Y6060000D01*
Y6043217D02*
Y6050000D01*
X6810372Y4347500D02*
X6936783D01*
X6995000Y4895000D02*
X7053085D01*
X6980000Y4880000D02*
X6995000Y4895000D01*
X9520000Y7030000D02*
X9990000D01*
X9119290D02*
X9520000D01*
Y6720000D02*
Y7030000D01*
X9874289Y6450711D02*
X9875000Y6450000D01*
X9789289Y6450711D02*
X9874289D01*
X9520000Y6720000D02*
X9789289Y6450711D01*
X9210000Y6475000D02*
X9225000Y6460000D01*
X9200000Y6475000D02*
X9210000D01*
X9090000Y6585000D02*
X9200000Y6475000D01*
X9090000Y6585000D02*
Y7000710D01*
X9225000Y6450000D02*
Y6460000D01*
X9090000Y7000710D02*
X9119290Y7030000D01*
X9990000D02*
X10080000Y6940000D01*
X10260000Y6475000D02*
X10275000Y6460000D01*
X10250000Y6475000D02*
X10260000D01*
X10080000Y6645000D02*
X10250000Y6475000D01*
X10080000Y6645000D02*
Y6940000D01*
X10275000Y6450000D02*
Y6460000D01*
X8965000Y5792500D02*
X9200717Y6028217D01*
X8541310Y5732220D02*
X8601590Y5792500D01*
X8965000D01*
X9200717Y6028217D02*
X9260000D01*
X9275000Y6043217D01*
X9260000Y6075000D02*
X9275000Y6060000D01*
X8512300Y5732220D02*
X8541310D01*
X8497300Y5717220D02*
X8512300Y5732220D01*
X10907160Y4191000D02*
X10955506D01*
X10907160Y4846320D02*
X10957145D01*
X10702160Y4191000D02*
X10757160D01*
X10907160Y4615180D02*
X10962160D01*
X8095000Y3197500D02*
X8150000D01*
X6981257Y4725204D02*
X7036257D01*
X7445000Y4510000D02*
Y4565000D01*
X6765000Y4497500D02*
X6820000D01*
X8480000Y4817500D02*
Y4872500D01*
X8154800Y4549720D02*
X8209800D01*
X12092160Y3880233D02*
Y3888760D01*
X12071860Y3909060D02*
X12092160Y3888760D01*
X12024360Y3909060D02*
X12071860D01*
X9380000Y4270000D02*
Y4447500D01*
Y4270000D02*
X9500000Y4150000D01*
Y800000D02*
Y4150000D01*
Y800000D02*
X9547298Y752703D01*
X9592099Y650000D02*
Y690597D01*
X9547298Y735398D02*
Y752703D01*
Y735398D02*
X9592099Y690597D01*
X9592500Y4182500D02*
Y4447500D01*
Y4182500D02*
X10960499Y2814501D01*
Y642220D02*
Y2814501D01*
X9785000Y4452500D02*
X9795000D01*
X9797500Y4440000D02*
Y4450000D01*
X12328899Y642220D02*
Y1908601D01*
X9795000Y4452500D02*
X9797500Y4450000D01*
Y4440000D02*
X12328899Y1908601D01*
X10030000Y4455000D02*
X10040000D01*
X10055000Y4430000D02*
X13697057Y787943D01*
Y642463D02*
X13697301Y642220D01*
X10040000Y4455000D02*
X10055000Y4440000D01*
X13697057Y642463D02*
Y787943D01*
X10055000Y4430000D02*
Y4440000D01*
X9190000Y4662500D02*
Y4717500D01*
X6982500Y6015000D02*
X7037500D01*
X7659750Y6383358D02*
Y6512750D01*
X7662500Y6386108D02*
Y6395858D01*
X7659750Y6383358D02*
X7662500Y6386108D01*
X6465000Y4585000D02*
X6979946D01*
X7047300Y4517646D01*
Y4342220D02*
Y4517646D01*
X6000000Y5050000D02*
X6465000Y4585000D01*
X6936783Y4347500D02*
X7042020D01*
X7047300Y4342220D01*
X6760000Y4867500D02*
X6815000D01*
X11352500Y3905000D02*
X11484360D01*
X8237500Y4350000D02*
X8292500D01*
X7040000Y3620000D02*
X7092725D01*
X6875000Y3635000D02*
Y3675001D01*
Y3635000D02*
X6890000Y3620000D01*
Y3379289D02*
X6919289Y3350000D01*
X6890000Y3379289D02*
Y3620000D01*
X6919289Y3350000D02*
X7600000D01*
X6850000Y3700000D02*
X6875000Y3675001D01*
X7454750Y6383358D02*
X7509750D01*
X7227500Y4160000D02*
X7280225D01*
X7077500D02*
Y4170000D01*
X7047300Y4200200D02*
Y4342220D01*
Y4200200D02*
X7077500Y4170000D01*
X6000000Y5050000D02*
Y5550000D01*
X6467220Y6017220D01*
X6647300D01*
X7470000Y4207500D02*
Y4260225D01*
X10702160Y3952240D02*
X10757160D01*
X10702160Y4404360D02*
X10757160D01*
X10702160Y4615180D02*
X10757160D01*
X10702160Y4846320D02*
X10757160D01*
X10477000Y5095000D02*
Y5150000D01*
X9715000Y5095000D02*
Y5150000D01*
X9969000Y5095000D02*
Y5150000D01*
X10223000Y5095000D02*
Y5150000D01*
X8345000Y3394289D02*
Y3790000D01*
X8260000Y3875000D02*
X8345000Y3790000D01*
X7860000Y3365000D02*
X8315711D01*
X8345000Y3394289D01*
X7750000Y3475000D02*
X7860000Y3365000D01*
X8489800Y5874720D02*
Y5929720D01*
X7630000Y4140000D02*
Y4195000D01*
X7782500Y4387500D02*
X7837500D01*
X7775000Y4380000D02*
X7782500Y4387500D01*
X9225000Y6104290D02*
X9254289Y6075000D01*
X9260000D01*
X9225000Y6104290D02*
Y6450000D01*
X7600000Y3350000D02*
X7710000Y3460000D01*
X7735000D02*
X7750000Y3475000D01*
X7710000Y3460000D02*
X7735000D01*
X14605000Y1905000D02*
X14986000D01*
X12219940Y4290060D02*
X14605000Y1905000D01*
X12024360Y4290060D02*
X12219940D01*
X12024360Y4417060D02*
X13616940D01*
X14747664Y8270664D02*
X14877013D01*
X12192000Y4827350D02*
Y5715000D01*
X14877013Y8270664D02*
X14904276Y8297927D01*
X12192000Y5715000D02*
X14747664Y8270664D01*
X12024360Y4671060D02*
X12672060D01*
X14732001Y6731000D02*
X14986000D01*
X12672060Y4671060D02*
X14732001Y6731000D01*
X12024360Y4544060D02*
X14196060D01*
X14747240Y5095240D02*
X14986000D01*
X14196060Y4544060D02*
X14747240Y5095240D01*
X12024360Y4798060D02*
X12162710D01*
X12192000Y4827350D01*
D32*
X7697300Y6117320D02*
Y6192220D01*
D33*
X7635000Y6106660D02*
X7697860D01*
X7635000Y6100000D02*
X7700000D01*
D34*
X8590000Y4167500D02*
X8600000D01*
X8297500Y3875000D02*
X8590000Y4167500D01*
X8260000Y3875000D02*
X8297500D01*
X8627500Y4195000D02*
Y4205000D01*
X8600000Y4167500D02*
X8627500Y4195000D01*
X8787500Y3364588D02*
X8792500Y3359588D01*
Y3200000D02*
Y3359588D01*
X8787500Y3364588D02*
Y3370000D01*
X8223700Y2631199D02*
X8792500Y3200000D01*
X8223700Y642220D02*
Y2631199D01*
X7399800Y5894719D02*
Y5967300D01*
X7407390Y5974890D01*
X7397300Y5892219D02*
X7399800Y5894719D01*
X7407390Y5974890D02*
Y5985295D01*
X7411217Y5989121D01*
X9300000Y6367500D02*
X9715000Y5952500D01*
Y5772000D02*
Y5952500D01*
X9300000Y6367500D02*
Y6794017D01*
X7285710Y5989165D02*
X7335155Y5939719D01*
X7347300Y5892219D02*
Y5937220D01*
X7335155Y5939719D02*
X7344800D01*
X7215000Y5989165D02*
X7285710D01*
X7344800Y5939719D02*
X7347300Y5937220D01*
X7204782Y5999383D02*
X7215000Y5989165D01*
X7204782Y5999383D02*
Y6034738D01*
X7187500Y5993488D02*
Y6195000D01*
X8297299Y5042221D02*
X9015279D01*
X7995000Y4535000D02*
X8022500Y4507500D01*
X8032500D01*
X8090000Y4450000D01*
X8627500D01*
X7995000Y4535000D02*
Y4545000D01*
X7890000Y4645412D02*
X7894799Y4650211D01*
Y4739721D01*
X7890000Y4640000D02*
Y4645412D01*
X8297299Y5342220D02*
X9142220D01*
X8297299Y5292220D02*
X9192220D01*
X9142220Y5342220D02*
X9450000Y5650000D01*
X9192220Y5292220D02*
X9500000Y5600000D01*
X8297299Y5242220D02*
X9242220D01*
X10030000Y4680000D02*
X10350000Y5000000D01*
Y5150000D01*
X10030000Y4605000D02*
Y4680000D01*
X9785000Y4687500D02*
X10096000Y4998500D01*
Y5150000D01*
X9785000Y4602500D02*
Y4687500D01*
X9842000Y5052000D02*
Y5150000D01*
X9592500Y4802500D02*
X9842000Y5052000D01*
X9592500Y4597500D02*
Y4802500D01*
X9555000Y5117000D02*
X9588000Y5150000D01*
X9550000Y5090855D02*
X9555000Y5095855D01*
X9375000Y4575962D02*
Y4912500D01*
X9550000Y5087500D02*
Y5090855D01*
X9375000Y4912500D02*
X9550000Y5087500D01*
X9555000Y5095855D02*
Y5117000D01*
X7887912Y4377500D02*
X7890000D01*
X7907699Y4359801D01*
Y4286227D02*
Y4359801D01*
X7872500Y4387500D02*
X7877912D01*
X7887912Y4377500D01*
X9075000Y4865000D02*
X9187500D01*
X9190000Y4867500D01*
X8627500Y4205000D02*
Y4305000D01*
X9015279Y5042221D02*
X9152500Y4905000D01*
Y4895000D02*
X9180000Y4867500D01*
X9152500Y4895000D02*
Y4905000D01*
X9180000Y4867500D02*
X9190000D01*
X7528060Y6231940D02*
X7528341Y6232220D01*
X7894799Y4739721D02*
X7897299Y4742221D01*
X8192779Y4992221D02*
X8297299D01*
X8192500Y4992500D02*
X8192779Y4992221D01*
X8297159Y4992360D02*
X8297299Y4992221D01*
X8192500Y5642500D02*
X8192781Y5642219D01*
X8297299D01*
X10425000Y6450000D02*
X10550000Y6325000D01*
X10025000Y6450000D02*
X10100000Y6375000D01*
X10050000Y6450000D02*
Y6496187D01*
X10100000Y5776000D02*
Y6375000D01*
X9950000Y5791000D02*
X9969000Y5772000D01*
X9950000Y5791000D02*
Y6600000D01*
X9750000Y6800000D02*
X9950000Y6600000D01*
X9842000Y5772000D02*
Y6058000D01*
X9405395Y6450000D02*
X9450000D01*
X9842000Y6058000D01*
X7947299Y4602221D02*
X7997300Y4552220D01*
X7947299Y4602221D02*
Y4742221D01*
X9294017Y6800001D02*
X9300000Y6794017D01*
X10250267Y5799267D02*
Y5850266D01*
X10223000Y5772000D02*
X10250267Y5799267D01*
X10350000Y5950000D02*
Y6800000D01*
X10250267Y5850266D02*
X10350000Y5950000D01*
Y5772000D02*
X10383000Y5805000D01*
X10550000Y6000000D02*
Y6325000D01*
X10383000Y5805000D02*
Y5833000D01*
X10550000Y6000000D01*
X10477000Y5772000D02*
X10700000Y5995000D01*
X10650000Y6800000D02*
X10700000Y6750000D01*
Y5995000D02*
Y6750000D01*
X10477000Y5627000D02*
Y5772000D01*
X10096000D02*
X10100000Y5776000D01*
X9425000Y6040000D02*
X9452500Y6012500D01*
X9425000Y6040000D02*
Y6050000D01*
X9588000Y5772000D02*
Y5887000D01*
X9462500Y6012500D02*
X9588000Y5887000D01*
X9452500Y6012500D02*
X9462500D01*
X9600000Y5500000D02*
X10350000D01*
X9292220Y5192220D02*
X9600000Y5500000D01*
X8297299Y5192220D02*
X9292220D01*
X10350000Y5500000D02*
X10477000Y5627000D01*
X10194734Y5743734D02*
X10223000Y5772000D01*
X10194734Y5694734D02*
Y5743734D01*
X9550000Y5550000D02*
X10050000D01*
X10194734Y5694734D01*
X9242220Y5242220D02*
X9550000Y5550000D01*
X9950000Y5650000D02*
Y5753000D01*
X9969000Y5772000D01*
X9900000Y5600000D02*
X9950000Y5650000D01*
X9500000Y5600000D02*
X9900000D01*
X9685355Y5650000D02*
X9700000Y5664645D01*
Y5757000D01*
X9450000Y5650000D02*
X9685355D01*
X9700000Y5757000D02*
X9715000Y5772000D01*
X8297299Y5292220D02*
X8299799Y5294720D01*
X8472299Y5692219D02*
X8497300Y5717220D01*
X8297299Y5692219D02*
X8472299D01*
D35*
X7387500Y6200000D02*
X7419440Y6231940D01*
X7053085Y4891026D02*
Y4895000D01*
Y4891026D02*
X7317500Y4626611D01*
X7295000Y4565000D02*
X7317500Y4587500D01*
Y4626611D01*
X7337503Y4646614D01*
X7272500Y4532500D02*
X7295000Y4555000D01*
X7247646Y4517646D02*
X7262500Y4532500D01*
X7295000Y4555000D02*
Y4565000D01*
X7262500Y4532500D02*
X7272500D01*
X7047300Y4517646D02*
X7247646D01*
X6797300Y3752700D02*
X6850000Y3700000D01*
D36*
X9482500Y8872500D02*
D03*
X8784000Y8243494D02*
D03*
D37*
X3842285Y7087154D02*
D03*
X2705000Y892500D02*
D03*
X4704996D02*
D03*
X1542290Y7087154D02*
D03*
D38*
X705004Y892500D02*
D03*
D39*
X10452499Y642220D02*
D03*
X10960499D02*
D03*
X13697299D02*
D03*
X13189299D02*
D03*
X6347300D02*
D03*
X6855300D02*
D03*
X7715700D02*
D03*
X8223700D02*
D03*
X9084099Y650000D02*
D03*
X9592099D02*
D03*
X11820899Y642220D02*
D03*
X12328899D02*
D03*
X17500000Y9104630D02*
D03*
Y8596630D02*
D03*
Y7481570D02*
D03*
Y6973570D02*
D03*
Y5939790D02*
D03*
Y5431790D02*
D03*
Y4298950D02*
D03*
Y3790950D02*
D03*
Y2688590D02*
D03*
Y2180590D02*
D03*
X747300Y9550220D02*
D03*
Y9042220D02*
D03*
D40*
X10057500Y9458750D02*
D03*
Y8081250D02*
D03*
D41*
X572300Y8072220D02*
D03*
Y8412220D02*
D03*
X1922300D02*
D03*
Y8072220D02*
D03*
D42*
X2892500Y8400000D02*
D03*
D43*
X8320000Y7867500D02*
D03*
X4617500Y7920000D02*
D03*
D44*
X8320000Y9367500D02*
D03*
X4617500Y9420000D02*
D03*
D45*
X14732001Y3929380D02*
D03*
X14986000Y4429760D02*
D03*
X16002000D02*
D03*
X14986000Y3429000D02*
D03*
X16002000D02*
D03*
X14732001Y2405380D02*
D03*
X14986000Y2905760D02*
D03*
X16002000D02*
D03*
X14986000Y1905000D02*
D03*
X16002000D02*
D03*
X14650275Y8798307D02*
D03*
X14904276Y9298687D02*
D03*
X15920274D02*
D03*
X14904276Y8297927D02*
D03*
X15920274D02*
D03*
X14732001Y7231380D02*
D03*
X14986000Y7731760D02*
D03*
X16002000D02*
D03*
X14986000Y6731000D02*
D03*
X16002000D02*
D03*
X14732001Y5595620D02*
D03*
X14986000Y6096000D02*
D03*
X16002000D02*
D03*
X14986000Y5095240D02*
D03*
X16002000D02*
D03*
D46*
X5957502Y8020000D02*
D03*
X6957500Y9219998D02*
D03*
Y8020000D02*
D03*
D47*
X3642500Y8500000D02*
D03*
D48*
X5957502Y9219998D02*
D03*
D49*
X7798960Y7269480D02*
D03*
X7806580Y6878320D02*
D03*
X7510000Y4072500D02*
D03*
X7450000Y4845000D02*
D03*
X7650000D02*
D03*
X7990000Y4180000D02*
D03*
X7960000Y4452500D02*
D03*
X7890000Y4640000D02*
D03*
X7877500Y4850000D02*
D03*
X6637500Y4205000D02*
D03*
X6665000Y4315000D02*
D03*
X7277500Y4880000D02*
D03*
X7892500Y6007500D02*
D03*
X7517500Y5500000D02*
D03*
X7960000Y6025000D02*
D03*
X6471390Y3778610D02*
D03*
X6700000Y3700000D02*
D03*
X6587500Y3685000D02*
D03*
X6365000Y3987500D02*
D03*
X7411217Y5989121D02*
D03*
X7650000Y5750000D02*
D03*
X7750000Y6010000D02*
D03*
X9262500Y5617500D02*
D03*
X9170000Y5500000D02*
D03*
X8717500Y5447500D02*
D03*
X8497500Y5397500D02*
D03*
X8530000Y5634720D02*
D03*
X10667160Y4191000D02*
D03*
X11000000Y4015000D02*
D03*
X10997160Y4191000D02*
D03*
Y4404360D02*
D03*
Y4615180D02*
D03*
Y4846320D02*
D03*
X8167500Y3197500D02*
D03*
X8787500Y3370000D02*
D03*
X7053757Y4725204D02*
D03*
X7445000Y4492500D02*
D03*
X6747500Y4497500D02*
D03*
X8480000Y4800000D02*
D03*
X8227300Y4549720D02*
D03*
X7997500Y4840000D02*
D03*
X8244799Y4749721D02*
D03*
X7532500Y5616546D02*
D03*
X7595000Y6010000D02*
D03*
X9190000Y4627500D02*
D03*
X6947500Y6015000D02*
D03*
X7057300Y4992221D02*
D03*
X6797500Y5850000D02*
D03*
X7522500Y6135000D02*
D03*
X7872500Y4387500D02*
D03*
X6850000Y4867500D02*
D03*
X8327500Y4350000D02*
D03*
X7450000Y3700000D02*
D03*
X7127725Y3617500D02*
D03*
X7315225Y4157500D02*
D03*
X7467500Y4172500D02*
D03*
X6772500Y4222500D02*
D03*
X6850000Y4250000D02*
D03*
X11317500Y3905000D02*
D03*
X10477000Y5060000D02*
D03*
X8192500Y5642500D02*
D03*
Y4992500D02*
D03*
X7635000Y6100000D02*
D03*
X7630000Y4105000D02*
D03*
X7920000Y3625000D02*
D03*
Y4025000D02*
D03*
X9715000Y5060000D02*
D03*
X9969000D02*
D03*
X10223000D02*
D03*
X7419750Y6383358D02*
D03*
X8489800Y5964720D02*
D03*
X10750000Y3950000D02*
D03*
X10667160Y4404360D02*
D03*
Y4615180D02*
D03*
Y4846320D02*
D03*
%TF.MD5,1a76a3b8fdcdaba8770ef7fd8aa4009d*%
M02*
