%TF.GenerationSoftware,Altium Limited,Altium Designer,23.11.1 (41)*%
G04 Layer_Color=8388736*
%FSLAX45Y45*%
%MOMM*%
%TF.SameCoordinates,7081611A-E9FA-4801-99CF-350105B7A270*%
%TF.FilePolarity,Negative*%
%TF.FileFunction,Soldermask,Top*%
%TF.Part,Single*%
G01*
G75*
%TA.AperFunction,TestPad*%
G04:AMPARAMS|DCode=16|XSize=0.9mm|YSize=0.8mm|CornerRadius=0.04mm|HoleSize=0mm|Usage=FLASHONLY|Rotation=90.000|XOffset=0mm|YOffset=0mm|HoleType=Round|Shape=RoundedRectangle|*
%AMROUNDEDRECTD16*
21,1,0.90000,0.72000,0,0,90.0*
21,1,0.82000,0.80000,0,0,90.0*
1,1,0.08000,0.36000,0.41000*
1,1,0.08000,0.36000,-0.41000*
1,1,0.08000,-0.36000,-0.41000*
1,1,0.08000,-0.36000,0.41000*
%
%ADD16ROUNDEDRECTD16*%
%TA.AperFunction,SMDPad,CuDef*%
%ADD25R,1.55000X0.60000*%
%TA.AperFunction,ComponentPad*%
%ADD42R,1.60000X1.60000*%
%ADD43C,1.30000*%
%ADD44R,1.30000X1.30000*%
%TA.AperFunction,SMDPad,CuDef*%
%ADD54R,2.20320X2.20320*%
%ADD55R,1.00320X1.20320*%
%ADD56R,0.90320X0.80320*%
%ADD57R,1.20320X1.00320*%
%ADD58R,2.20320X2.20320*%
%ADD59R,1.90320X1.20320*%
%ADD60R,1.11320X1.34320*%
%ADD61R,1.20320X2.00320*%
%ADD62R,0.70000X0.30000*%
%ADD63R,0.45000X1.09000*%
%ADD64R,0.95320X0.50320*%
%ADD65R,0.50320X0.95320*%
%ADD66R,0.50320X1.40320*%
%ADD67R,1.40320X0.50320*%
%TA.AperFunction,ComponentPad*%
%ADD68C,2.41300*%
%ADD69C,2.74320*%
%ADD70R,2.74320X2.74320*%
%ADD71C,2.20345*%
%ADD72C,2.00320*%
%ADD73C,2.35320*%
%ADD74C,2.71780*%
%ADD75C,2.48920*%
%ADD76C,1.80320*%
%ADD77R,2.48920X2.48920*%
D16*
X7630000Y4380000D02*
D03*
Y4195000D02*
D03*
X7775000Y4380000D02*
D03*
Y4195000D02*
D03*
D25*
X12024360Y4798060D02*
D03*
Y4671060D02*
D03*
Y4544060D02*
D03*
Y4417060D02*
D03*
Y4290060D02*
D03*
Y4163060D02*
D03*
Y4036060D02*
D03*
Y3909060D02*
D03*
X11484360D02*
D03*
Y4036060D02*
D03*
Y4163060D02*
D03*
Y4290060D02*
D03*
Y4417060D02*
D03*
Y4544060D02*
D03*
Y4671060D02*
D03*
Y4798060D02*
D03*
D42*
X2892500Y8400000D02*
D03*
D43*
X8320000Y7867500D02*
D03*
X4617500Y7920000D02*
D03*
D44*
X8320000Y9367500D02*
D03*
X4617500Y9420000D02*
D03*
D54*
X7015000Y5837500D02*
D03*
X6397500Y4980000D02*
D03*
X6402500Y5237500D02*
D03*
X9027500Y5505000D02*
D03*
X11155000Y4255000D02*
D03*
X11105941Y3753844D02*
D03*
X6647300Y6017220D02*
D03*
X8792500Y3200000D02*
D03*
X8030000D02*
D03*
X8100000Y4030000D02*
D03*
Y3625000D02*
D03*
X6100000Y4250000D02*
D03*
X6600000Y3400000D02*
D03*
X6100000D02*
D03*
Y3700000D02*
D03*
X6105971Y3987220D02*
D03*
X7265000Y3762500D02*
D03*
X10350000Y6800000D02*
D03*
X9294017Y6800001D02*
D03*
X9750000Y6800000D02*
D03*
X8317500Y9760000D02*
D03*
X8100000Y6577500D02*
D03*
Y6850000D02*
D03*
Y7400000D02*
D03*
X6647300Y5742220D02*
D03*
X7250000Y4362500D02*
D03*
X6647300Y5467220D02*
D03*
D55*
X7187500Y6015000D02*
D03*
X7037500D02*
D03*
X7077500Y4160000D02*
D03*
X7227500D02*
D03*
X6760000Y4867500D02*
D03*
X6610000D02*
D03*
X7995000Y4545000D02*
D03*
X8145000D02*
D03*
X8087500Y4350000D02*
D03*
X8237500D02*
D03*
X6890000Y3620000D02*
D03*
X7040000D02*
D03*
X7610000Y4562500D02*
D03*
X7760000D02*
D03*
X10025000Y6450000D02*
D03*
X9875000D02*
D03*
X10425000D02*
D03*
X10275000D02*
D03*
X9375000D02*
D03*
X9225000D02*
D03*
X9425000Y6050000D02*
D03*
X9275000D02*
D03*
X10907160Y3952240D02*
D03*
X10757160D02*
D03*
X10907160Y4191000D02*
D03*
X10757160D02*
D03*
X10907160Y4404360D02*
D03*
X10757160D02*
D03*
X10907160Y4615180D02*
D03*
X10757160D02*
D03*
X10907160Y4846320D02*
D03*
X10757160D02*
D03*
X8627500Y4205000D02*
D03*
X8477500D02*
D03*
X7295000Y4565000D02*
D03*
X7445000D02*
D03*
X7509750Y6383358D02*
D03*
X7659750D02*
D03*
D56*
X7907699Y4186227D02*
D03*
Y4286227D02*
D03*
X7470000Y4265000D02*
D03*
Y4365000D02*
D03*
D57*
X6820000Y4347500D02*
D03*
Y4497500D02*
D03*
X10030000Y4455000D02*
D03*
Y4605000D02*
D03*
X9785000Y4452500D02*
D03*
Y4602500D02*
D03*
X9592500Y4447500D02*
D03*
Y4597500D02*
D03*
X9380000Y4447500D02*
D03*
Y4597500D02*
D03*
X7772500Y3880000D02*
D03*
Y4030000D02*
D03*
X7750000Y3475000D02*
D03*
Y3625000D02*
D03*
X8480000Y4872500D02*
D03*
Y5022500D02*
D03*
X9190000Y4717500D02*
D03*
Y4867500D02*
D03*
X6980000Y4730000D02*
D03*
Y4880000D02*
D03*
X8497300Y5867220D02*
D03*
Y5717220D02*
D03*
D58*
X9265000Y5747500D02*
D03*
X11211025Y5041937D02*
D03*
X8150000Y6260000D02*
D03*
X10650000Y6800000D02*
D03*
D59*
X7075000Y7010000D02*
D03*
Y7200000D02*
D03*
D60*
X9588000Y5150000D02*
D03*
X9715000D02*
D03*
X9842000D02*
D03*
X9969000D02*
D03*
X10096000D02*
D03*
X10223000D02*
D03*
X10350000D02*
D03*
X10477000D02*
D03*
X9588000Y5772000D02*
D03*
X9715000D02*
D03*
X9842000D02*
D03*
X9969000D02*
D03*
X10096000D02*
D03*
X10223000D02*
D03*
X10350000D02*
D03*
X10477000D02*
D03*
D61*
X7398960Y7269480D02*
D03*
X7406580Y6878320D02*
D03*
X7716580D02*
D03*
X7708960Y7269480D02*
D03*
D62*
X7632300Y6232220D02*
D03*
Y6152220D02*
D03*
X7762300Y6232220D02*
D03*
X7632300Y6192220D02*
D03*
X7762300Y6152220D02*
D03*
Y6192220D02*
D03*
D63*
X7697300D02*
D03*
D64*
X6952300Y3987220D02*
D03*
X6542300D02*
D03*
D65*
X6897300Y3857220D02*
D03*
X6597300Y4117220D02*
D03*
X6697300Y3857220D02*
D03*
X6797300D02*
D03*
X6897300Y4117220D02*
D03*
X6797300D02*
D03*
X6697300D02*
D03*
X6597300Y3857220D02*
D03*
X6847300D02*
D03*
X6747300D02*
D03*
X6647300D02*
D03*
X6847300Y4117220D02*
D03*
X6747300D02*
D03*
X6647300D02*
D03*
D66*
X7847299Y5892219D02*
D03*
X7897299D02*
D03*
X7997299D02*
D03*
X7697300D02*
D03*
X7597300D02*
D03*
X7347300Y4742221D02*
D03*
X7947299D02*
D03*
X7347300Y5892219D02*
D03*
X7747299D02*
D03*
X7797299D02*
D03*
X7947299D02*
D03*
X7397300Y4742221D02*
D03*
X7447300D02*
D03*
X7497300D02*
D03*
X7547300D02*
D03*
X7597300D02*
D03*
X7647300D02*
D03*
X7697300D02*
D03*
X7747299D02*
D03*
X7797299D02*
D03*
X7847299D02*
D03*
X7897299D02*
D03*
X7997299D02*
D03*
X8047299D02*
D03*
X8097299D02*
D03*
Y5892219D02*
D03*
X8047299D02*
D03*
X7647300D02*
D03*
X7547300D02*
D03*
X7497300D02*
D03*
X7447300D02*
D03*
X7397300D02*
D03*
D67*
X7147300Y4942221D02*
D03*
X8297299Y5042221D02*
D03*
Y5692219D02*
D03*
X7147300D02*
D03*
Y5642219D02*
D03*
Y5592219D02*
D03*
Y5542220D02*
D03*
Y5492220D02*
D03*
Y5442220D02*
D03*
Y5392220D02*
D03*
Y5342220D02*
D03*
Y5292220D02*
D03*
Y5242220D02*
D03*
Y5192220D02*
D03*
Y5142220D02*
D03*
Y5092220D02*
D03*
Y5042221D02*
D03*
Y4992221D02*
D03*
X8297299Y4942221D02*
D03*
Y4992221D02*
D03*
Y5092220D02*
D03*
Y5142220D02*
D03*
Y5192220D02*
D03*
Y5242220D02*
D03*
Y5292220D02*
D03*
Y5342220D02*
D03*
Y5392220D02*
D03*
Y5442220D02*
D03*
Y5492220D02*
D03*
Y5542220D02*
D03*
Y5592219D02*
D03*
Y5642219D02*
D03*
D68*
X9482500Y8872500D02*
D03*
X8784000Y8243494D02*
D03*
D69*
X3842285Y7087154D02*
D03*
X2705000Y892500D02*
D03*
X4704996D02*
D03*
X1542290Y7087154D02*
D03*
D70*
X705004Y892500D02*
D03*
D71*
X10452499Y642220D02*
D03*
X10960499D02*
D03*
X13697299D02*
D03*
X13189299D02*
D03*
X6347300D02*
D03*
X6855300D02*
D03*
X7715700D02*
D03*
X8223700D02*
D03*
X9084099Y650000D02*
D03*
X9592099D02*
D03*
X11820899Y642220D02*
D03*
X12328899D02*
D03*
X17500000Y9104630D02*
D03*
Y8596630D02*
D03*
Y7481570D02*
D03*
Y6973570D02*
D03*
Y5939790D02*
D03*
Y5431790D02*
D03*
Y4298950D02*
D03*
Y3790950D02*
D03*
Y2688590D02*
D03*
Y2180590D02*
D03*
X747300Y9550220D02*
D03*
Y9042220D02*
D03*
D72*
X10057500Y9458750D02*
D03*
Y8081250D02*
D03*
D73*
X572300Y8072220D02*
D03*
Y8412220D02*
D03*
X1922300D02*
D03*
Y8072220D02*
D03*
D74*
X14732001Y3929380D02*
D03*
X14986000Y4429760D02*
D03*
X16002000D02*
D03*
X14986000Y3429000D02*
D03*
X16002000D02*
D03*
X14732001Y2405380D02*
D03*
X14986000Y2905760D02*
D03*
X16002000D02*
D03*
X14986000Y1905000D02*
D03*
X16002000D02*
D03*
X14650275Y8798307D02*
D03*
X14904276Y9298687D02*
D03*
X15920274D02*
D03*
X14904276Y8297927D02*
D03*
X15920274D02*
D03*
X14732001Y7231380D02*
D03*
X14986000Y7731760D02*
D03*
X16002000D02*
D03*
X14986000Y6731000D02*
D03*
X16002000D02*
D03*
X14732001Y5595620D02*
D03*
X14986000Y6096000D02*
D03*
X16002000D02*
D03*
X14986000Y5095240D02*
D03*
X16002000D02*
D03*
D75*
X5957502Y8020000D02*
D03*
X6957500Y9219998D02*
D03*
Y8020000D02*
D03*
D76*
X3642500Y8500000D02*
D03*
D77*
X5957502Y9219998D02*
D03*
%TF.MD5,1cd3b3159ae13a51b01430dabd18f521*%
M02*
