%TF.GenerationSoftware,Altium Limited,Altium Designer,23.11.1 (41)*%
G04 Layer_Physical_Order=2*
G04 Layer_Color=16711680*
%FSLAX45Y45*%
%MOMM*%
%TF.SameCoordinates,7081611A-E9FA-4801-99CF-350105B7A270*%
%TF.FilePolarity,Positive*%
%TF.FileFunction,Copper,L2,Bot,Signal*%
%TF.Part,Single*%
G01*
G75*
%TA.AperFunction,Conductor*%
%ADD27C,1.20000*%
%ADD28C,0.20000*%
%ADD29C,0.30000*%
%TA.AperFunction,ComponentPad*%
%ADD36C,2.20980*%
%ADD37C,2.54000*%
%ADD38R,2.54000X2.54000*%
%ADD39C,2.00025*%
%ADD40C,1.80000*%
%ADD41C,2.15000*%
%ADD42R,1.60000X1.60000*%
%ADD43C,1.30000*%
%ADD44R,1.30000X1.30000*%
%ADD45C,2.51460*%
%ADD46C,2.28600*%
%ADD47C,1.60000*%
%ADD48R,2.28600X2.28600*%
%TA.AperFunction,ViaPad*%
%ADD49C,0.45000*%
G36*
X16762500Y445000D02*
X275000D01*
Y6455000D01*
X6795149D01*
X6800009Y6443267D01*
X6193371Y5836629D01*
X6186741Y5826705D01*
X6184412Y5815000D01*
X6184412Y5814999D01*
Y3662501D01*
X6184412Y3662500D01*
X6186741Y3650795D01*
X6193371Y3640871D01*
X6345871Y3488371D01*
X6355795Y3481741D01*
X6367500Y3479412D01*
X6367501Y3479412D01*
X6632499D01*
X6632500Y3479412D01*
X6644205Y3481741D01*
X6654129Y3488371D01*
X6721628Y3555871D01*
X6721629Y3555871D01*
X6728259Y3565794D01*
X6730588Y3577500D01*
Y3670484D01*
X6736030Y3675926D01*
X6742500Y3691547D01*
Y3708454D01*
X6736030Y3724074D01*
X6724074Y3736030D01*
X6708454Y3742500D01*
X6691546D01*
X6675926Y3736030D01*
X6663970Y3724074D01*
X6657500Y3708454D01*
Y3691547D01*
X6663970Y3675926D01*
X6669412Y3670484D01*
Y3590170D01*
X6619830Y3540588D01*
X6380170D01*
X6245588Y3675170D01*
Y5802330D01*
X6867670Y6424412D01*
X7375103D01*
X7380363Y6411712D01*
X7379142Y6410491D01*
X7373164Y6396058D01*
X7466336D01*
X7460357Y6410491D01*
X7459136Y6411712D01*
X7464397Y6424412D01*
X7747330D01*
X7929412Y6242330D01*
Y6174115D01*
X7916712Y6170262D01*
X7914129Y6174129D01*
X7914128Y6174129D01*
X7761629Y6326629D01*
X7751705Y6333259D01*
X7740000Y6335588D01*
X7739998Y6335588D01*
X7457681D01*
X7452420Y6348288D01*
X7460357Y6356225D01*
X7466336Y6370658D01*
X7373164D01*
X7379142Y6356225D01*
X7387080Y6348288D01*
X7381819Y6335588D01*
X6870001D01*
X6870000Y6335588D01*
X6858295Y6333259D01*
X6848371Y6326629D01*
X6343371Y5821629D01*
X6336741Y5811705D01*
X6334412Y5800000D01*
X6334412Y5799999D01*
Y4017016D01*
X6328970Y4011574D01*
X6322500Y3995954D01*
Y3979046D01*
X6328970Y3963426D01*
X6340926Y3951470D01*
X6356546Y3945000D01*
X6373454D01*
X6389074Y3951470D01*
X6401030Y3963426D01*
X6407500Y3979046D01*
Y3995954D01*
X6401030Y4011574D01*
X6395588Y4017016D01*
Y5787330D01*
X6882670Y6274412D01*
X7727330D01*
X7861912Y6139830D01*
Y6037016D01*
X7856470Y6031574D01*
X7850000Y6015954D01*
Y5999046D01*
X7856470Y5983426D01*
X7868426Y5971470D01*
X7884046Y5965000D01*
X7900954D01*
X7916574Y5971470D01*
X7928530Y5983426D01*
X7930368Y5987865D01*
X7935926Y5988970D01*
X7951546Y5982500D01*
X7968454D01*
X7984074Y5988970D01*
X7996030Y6000926D01*
X8002500Y6016546D01*
Y6033454D01*
X7996030Y6049074D01*
X7990588Y6054516D01*
Y6254999D01*
X7990588Y6255000D01*
X7988259Y6266705D01*
X7981629Y6276629D01*
X7981628Y6276629D01*
X7811776Y6446481D01*
X7816585Y6458236D01*
X8197500Y6461553D01*
Y9525000D01*
X9949797D01*
X9956147Y9514001D01*
X9949965Y9503293D01*
X9942100Y9473943D01*
Y9471450D01*
X10057500D01*
X10172900D01*
Y9473943D01*
X10165036Y9503293D01*
X10158853Y9514001D01*
X10165203Y9525000D01*
X16762500D01*
Y445000D01*
D02*
G37*
G36*
X3157500Y8710000D02*
X5017500D01*
Y7752500D01*
X2357500D01*
Y8640000D01*
X297500D01*
Y9905000D01*
X3157500D01*
Y8710000D01*
D02*
G37*
%LPC*%
G36*
X10172900Y9446050D02*
X10070200D01*
Y9343350D01*
X10072693D01*
X10102043Y9351214D01*
X10128357Y9366407D01*
X10149843Y9387893D01*
X10165036Y9414207D01*
X10172900Y9443557D01*
Y9446050D01*
D02*
G37*
G36*
X10044800D02*
X9942100D01*
Y9443557D01*
X9949965Y9414207D01*
X9965157Y9387893D01*
X9986643Y9366407D01*
X10012957Y9351214D01*
X10042307Y9343350D01*
X10044800D01*
Y9446050D01*
D02*
G37*
G36*
X8405000Y9452500D02*
X8235000D01*
Y9282500D01*
X8405000D01*
Y9452500D01*
D02*
G37*
G36*
X15939461Y9444417D02*
X15901089D01*
X15864024Y9434486D01*
X15830795Y9415300D01*
X15803662Y9388167D01*
X15784476Y9354937D01*
X15774545Y9317873D01*
Y9279501D01*
X15784476Y9242437D01*
X15803662Y9209207D01*
X15830795Y9182074D01*
X15864024Y9162888D01*
X15901089Y9152957D01*
X15939461D01*
X15976524Y9162888D01*
X16009755Y9182074D01*
X16036888Y9209207D01*
X16056075Y9242437D01*
X16066005Y9279501D01*
Y9317873D01*
X16056075Y9354937D01*
X16036888Y9388167D01*
X16009755Y9415300D01*
X15976524Y9434486D01*
X15939461Y9444417D01*
D02*
G37*
G36*
X14923460D02*
X14885089D01*
X14848026Y9434486D01*
X14814795Y9415300D01*
X14787662Y9388167D01*
X14768475Y9354937D01*
X14758545Y9317873D01*
Y9279501D01*
X14768475Y9242437D01*
X14787662Y9209207D01*
X14814795Y9182074D01*
X14848026Y9162888D01*
X14885089Y9152957D01*
X14923460D01*
X14960526Y9162888D01*
X14993755Y9182074D01*
X15020888Y9209207D01*
X15040074Y9242437D01*
X15050005Y9279501D01*
Y9317873D01*
X15040074Y9354937D01*
X15020888Y9388167D01*
X14993755Y9415300D01*
X14960526Y9434486D01*
X14923460Y9444417D01*
D02*
G37*
G36*
X9499679Y9002990D02*
X9465321D01*
X9432133Y8994097D01*
X9402377Y8976918D01*
X9378082Y8952623D01*
X9360903Y8922867D01*
X9352010Y8889679D01*
Y8855321D01*
X9360903Y8822133D01*
X9378082Y8792377D01*
X9402377Y8768082D01*
X9432133Y8750903D01*
X9465321Y8742010D01*
X9499679D01*
X9532867Y8750903D01*
X9562623Y8768082D01*
X9586918Y8792377D01*
X9604097Y8822133D01*
X9612990Y8855321D01*
Y8889679D01*
X9604097Y8922867D01*
X9586918Y8952623D01*
X9562623Y8976918D01*
X9532867Y8994097D01*
X9499679Y9002990D01*
D02*
G37*
G36*
X14669461Y8944037D02*
X14631088D01*
X14594025Y8934106D01*
X14560796Y8914920D01*
X14533662Y8887787D01*
X14514476Y8854557D01*
X14504546Y8817493D01*
Y8779121D01*
X14514476Y8742057D01*
X14533662Y8708827D01*
X14560796Y8681694D01*
X14594025Y8662508D01*
X14631088Y8652577D01*
X14669461D01*
X14706525Y8662508D01*
X14739755Y8681694D01*
X14766888Y8708827D01*
X14786073Y8742057D01*
X14796005Y8779121D01*
Y8817493D01*
X14786073Y8854557D01*
X14766888Y8887787D01*
X14739755Y8914920D01*
X14706525Y8934106D01*
X14669461Y8944037D01*
D02*
G37*
G36*
X15939461Y8443657D02*
X15901089D01*
X15864024Y8433726D01*
X15830795Y8414540D01*
X15803662Y8387407D01*
X15784476Y8354177D01*
X15774545Y8317113D01*
Y8278741D01*
X15784476Y8241677D01*
X15803662Y8208447D01*
X15830795Y8181314D01*
X15864024Y8162128D01*
X15901089Y8152197D01*
X15939461D01*
X15976524Y8162128D01*
X16009755Y8181314D01*
X16036888Y8208447D01*
X16056075Y8241677D01*
X16066005Y8278741D01*
Y8317113D01*
X16056075Y8354177D01*
X16036888Y8387407D01*
X16009755Y8414540D01*
X15976524Y8433726D01*
X15939461Y8443657D01*
D02*
G37*
G36*
X14923460D02*
X14885089D01*
X14848026Y8433726D01*
X14814795Y8414540D01*
X14787662Y8387407D01*
X14768475Y8354177D01*
X14758545Y8317113D01*
Y8278741D01*
X14768475Y8241677D01*
X14787662Y8208447D01*
X14814795Y8181314D01*
X14848026Y8162128D01*
X14885089Y8152197D01*
X14923460D01*
X14960526Y8162128D01*
X14993755Y8181314D01*
X15020888Y8208447D01*
X15040074Y8241677D01*
X15050005Y8278741D01*
Y8317113D01*
X15040074Y8354177D01*
X15020888Y8387407D01*
X14993755Y8414540D01*
X14960526Y8433726D01*
X14923460Y8443657D01*
D02*
G37*
G36*
X8801179Y8373984D02*
X8766821D01*
X8733633Y8365091D01*
X8703877Y8347912D01*
X8679582Y8323617D01*
X8662403Y8293861D01*
X8653510Y8260674D01*
Y8226315D01*
X8662403Y8193127D01*
X8679582Y8163372D01*
X8703877Y8139076D01*
X8733633Y8121897D01*
X8766821Y8113004D01*
X8801179D01*
X8834367Y8121897D01*
X8864123Y8139076D01*
X8888418Y8163372D01*
X8905597Y8193127D01*
X8914490Y8226315D01*
Y8260674D01*
X8905597Y8293861D01*
X8888418Y8323617D01*
X8864123Y8347912D01*
X8834367Y8365091D01*
X8801179Y8373984D01*
D02*
G37*
G36*
X10071982Y8191250D02*
X10043018D01*
X10015042Y8183754D01*
X9989959Y8169272D01*
X9969478Y8148791D01*
X9954997Y8123708D01*
X9947500Y8095732D01*
Y8066768D01*
X9954997Y8038792D01*
X9969478Y8013709D01*
X9989959Y7993228D01*
X10015042Y7978747D01*
X10043018Y7971250D01*
X10071982D01*
X10099958Y7978747D01*
X10125041Y7993228D01*
X10145522Y8013709D01*
X10160004Y8038792D01*
X10167500Y8066768D01*
Y8095732D01*
X10160004Y8123708D01*
X10145522Y8148791D01*
X10125041Y8169272D01*
X10099958Y8183754D01*
X10071982Y8191250D01*
D02*
G37*
G36*
X8332700Y7957686D02*
Y7880199D01*
X8410186D01*
X8404239Y7902393D01*
X8392338Y7923007D01*
X8375507Y7939838D01*
X8354893Y7951739D01*
X8332700Y7957686D01*
D02*
G37*
G36*
X8307300Y7957686D02*
X8285107Y7951739D01*
X8264493Y7939838D01*
X8247662Y7923007D01*
X8235761Y7902393D01*
X8229814Y7880199D01*
X8307300D01*
Y7957686D01*
D02*
G37*
G36*
Y7854799D02*
X8229814D01*
X8235761Y7832607D01*
X8247662Y7811993D01*
X8264493Y7795162D01*
X8285107Y7783261D01*
X8307300Y7777314D01*
Y7854799D01*
D02*
G37*
G36*
X8410186D02*
X8332700D01*
Y7777314D01*
X8354893Y7783261D01*
X8375507Y7795162D01*
X8392338Y7811993D01*
X8404239Y7832607D01*
X8410186Y7854799D01*
D02*
G37*
G36*
X16021185Y7877490D02*
X15982814D01*
X15945750Y7867559D01*
X15912520Y7848373D01*
X15885387Y7821240D01*
X15866200Y7788010D01*
X15856270Y7750946D01*
Y7712574D01*
X15866200Y7675510D01*
X15885387Y7642280D01*
X15912520Y7615147D01*
X15945750Y7595961D01*
X15982814Y7586030D01*
X16021185D01*
X16058250Y7595961D01*
X16091479Y7615147D01*
X16118613Y7642280D01*
X16137799Y7675510D01*
X16147729Y7712574D01*
Y7750946D01*
X16137799Y7788010D01*
X16118613Y7821240D01*
X16091479Y7848373D01*
X16058250Y7867559D01*
X16021185Y7877490D01*
D02*
G37*
G36*
X15005186D02*
X14966814D01*
X14929750Y7867559D01*
X14896519Y7848373D01*
X14869386Y7821240D01*
X14850201Y7788010D01*
X14840269Y7750946D01*
Y7712574D01*
X14850201Y7675510D01*
X14869386Y7642280D01*
X14896519Y7615147D01*
X14929750Y7595961D01*
X14966814Y7586030D01*
X15005186D01*
X15042250Y7595961D01*
X15075481Y7615147D01*
X15102612Y7642280D01*
X15121799Y7675510D01*
X15131731Y7712574D01*
Y7750946D01*
X15121799Y7788010D01*
X15102612Y7821240D01*
X15075481Y7848373D01*
X15042250Y7867559D01*
X15005186Y7877490D01*
D02*
G37*
G36*
X14751186Y7377110D02*
X14712814D01*
X14675751Y7367179D01*
X14642520Y7347993D01*
X14615387Y7320860D01*
X14596201Y7287630D01*
X14586270Y7250566D01*
Y7212194D01*
X14596201Y7175130D01*
X14615387Y7141900D01*
X14642520Y7114767D01*
X14675751Y7095581D01*
X14712814Y7085650D01*
X14751186D01*
X14788251Y7095581D01*
X14821480Y7114767D01*
X14848613Y7141900D01*
X14867799Y7175130D01*
X14877730Y7212194D01*
Y7250566D01*
X14867799Y7287630D01*
X14848613Y7320860D01*
X14821480Y7347993D01*
X14788251Y7367179D01*
X14751186Y7377110D01*
D02*
G37*
G36*
X16021185Y6876730D02*
X15982814D01*
X15945750Y6866799D01*
X15912520Y6847613D01*
X15885387Y6820480D01*
X15866200Y6787250D01*
X15856270Y6750186D01*
Y6711814D01*
X15866200Y6674750D01*
X15885387Y6641520D01*
X15912520Y6614387D01*
X15945750Y6595201D01*
X15982814Y6585270D01*
X16021185D01*
X16058250Y6595201D01*
X16091479Y6614387D01*
X16118613Y6641520D01*
X16137799Y6674750D01*
X16147729Y6711814D01*
Y6750186D01*
X16137799Y6787250D01*
X16118613Y6820480D01*
X16091479Y6847613D01*
X16058250Y6866799D01*
X16021185Y6876730D01*
D02*
G37*
G36*
X15005186D02*
X14966814D01*
X14929750Y6866799D01*
X14896519Y6847613D01*
X14869386Y6820480D01*
X14850201Y6787250D01*
X14840269Y6750186D01*
Y6711814D01*
X14850201Y6674750D01*
X14869386Y6641520D01*
X14896519Y6614387D01*
X14929750Y6595201D01*
X14966814Y6585270D01*
X15005186D01*
X15042250Y6595201D01*
X15075481Y6614387D01*
X15102612Y6641520D01*
X15121799Y6674750D01*
X15131731Y6711814D01*
Y6750186D01*
X15121799Y6787250D01*
X15102612Y6820480D01*
X15075481Y6847613D01*
X15042250Y6866799D01*
X15005186Y6876730D01*
D02*
G37*
G36*
X7702500Y6250588D02*
X7702499Y6250588D01*
X6947501D01*
X6947500Y6250588D01*
X6935795Y6248259D01*
X6925871Y6241629D01*
X6925871Y6241628D01*
X6449761Y5765519D01*
X6443131Y5755596D01*
X6440802Y5743890D01*
X6440802Y5743889D01*
Y3808126D01*
X6435361Y3802684D01*
X6428890Y3787064D01*
Y3770157D01*
X6435361Y3754536D01*
X6447316Y3742581D01*
X6462937Y3736110D01*
X6479844D01*
X6495464Y3742581D01*
X6507420Y3754536D01*
X6513890Y3770157D01*
Y3787064D01*
X6507420Y3802684D01*
X6501978Y3808126D01*
Y5731220D01*
X6960170Y6189412D01*
X7512145D01*
X7514046Y6177500D01*
X7498426Y6171030D01*
X7492984Y6165588D01*
X7475000D01*
X7463294Y6163259D01*
X7453371Y6156629D01*
X7177330Y5880588D01*
X6827016D01*
X6821574Y5886030D01*
X6805954Y5892500D01*
X6789046D01*
X6773426Y5886030D01*
X6761470Y5874074D01*
X6755000Y5858454D01*
Y5841546D01*
X6761470Y5825926D01*
X6773426Y5813970D01*
X6789046Y5807500D01*
X6805954D01*
X6821574Y5813970D01*
X6827016Y5819412D01*
X7189999D01*
X7190000Y5819412D01*
X7201705Y5821741D01*
X7211629Y5828371D01*
X7353460Y5970203D01*
X7368441Y5967223D01*
X7370609Y5961988D01*
X7384084Y5948514D01*
X7398517Y5942535D01*
Y5989121D01*
X7411217D01*
Y6001821D01*
X7457803D01*
X7451824Y6016254D01*
X7438350Y6029729D01*
X7433115Y6031897D01*
X7430136Y6046878D01*
X7487670Y6104412D01*
X7492984D01*
X7498426Y6098970D01*
X7514046Y6092500D01*
X7530954D01*
X7546574Y6098970D01*
X7558530Y6110926D01*
X7565000Y6126546D01*
Y6143454D01*
X7558530Y6159074D01*
X7546574Y6171030D01*
X7530954Y6177500D01*
X7532855Y6189412D01*
X7689830D01*
X7719412Y6159830D01*
Y6039516D01*
X7713970Y6034074D01*
X7707500Y6018454D01*
Y6001546D01*
X7713970Y5985926D01*
X7725926Y5973970D01*
X7741546Y5967500D01*
X7758454D01*
X7774074Y5973970D01*
X7786030Y5985926D01*
X7792500Y6001546D01*
Y6018454D01*
X7786030Y6034074D01*
X7780588Y6039516D01*
Y6172500D01*
X7778259Y6184205D01*
X7771629Y6194129D01*
X7771628Y6194129D01*
X7724129Y6241629D01*
X7714205Y6248259D01*
X7702500Y6250588D01*
D02*
G37*
G36*
X6960200Y6061586D02*
Y6027700D01*
X6994086D01*
X6988107Y6042133D01*
X6974633Y6055608D01*
X6960200Y6061586D01*
D02*
G37*
G36*
X6934800D02*
X6920367Y6055608D01*
X6906892Y6042133D01*
X6900914Y6027700D01*
X6934800D01*
Y6061586D01*
D02*
G37*
G36*
X8502500Y6011306D02*
Y5977420D01*
X8536386D01*
X8530407Y5991853D01*
X8516933Y6005328D01*
X8502500Y6011306D01*
D02*
G37*
G36*
X8477100D02*
X8462667Y6005328D01*
X8449192Y5991853D01*
X8443214Y5977420D01*
X8477100D01*
Y6011306D01*
D02*
G37*
G36*
X6994086Y6002300D02*
X6960200D01*
Y5968414D01*
X6974633Y5974393D01*
X6988107Y5987867D01*
X6994086Y6002300D01*
D02*
G37*
G36*
X6934800D02*
X6900914D01*
X6906892Y5987867D01*
X6920367Y5974393D01*
X6934800Y5968414D01*
Y6002300D01*
D02*
G37*
G36*
X16021185Y6241730D02*
X15982814D01*
X15945750Y6231799D01*
X15912520Y6212613D01*
X15885387Y6185480D01*
X15866200Y6152250D01*
X15856270Y6115186D01*
Y6076814D01*
X15866200Y6039750D01*
X15885387Y6006520D01*
X15912520Y5979387D01*
X15945750Y5960201D01*
X15982814Y5950270D01*
X16021185D01*
X16058250Y5960201D01*
X16091479Y5979387D01*
X16118613Y6006520D01*
X16137799Y6039750D01*
X16147729Y6076814D01*
Y6115186D01*
X16137799Y6152250D01*
X16118613Y6185480D01*
X16091479Y6212613D01*
X16058250Y6231799D01*
X16021185Y6241730D01*
D02*
G37*
G36*
X15005186D02*
X14966814D01*
X14929750Y6231799D01*
X14896519Y6212613D01*
X14869386Y6185480D01*
X14850201Y6152250D01*
X14840269Y6115186D01*
Y6076814D01*
X14850201Y6039750D01*
X14869386Y6006520D01*
X14896519Y5979387D01*
X14929750Y5960201D01*
X14966814Y5950270D01*
X15005186D01*
X15042250Y5960201D01*
X15075481Y5979387D01*
X15102612Y6006520D01*
X15121799Y6039750D01*
X15131731Y6076814D01*
Y6115186D01*
X15121799Y6152250D01*
X15102612Y6185480D01*
X15075481Y6212613D01*
X15042250Y6231799D01*
X15005186Y6241730D01*
D02*
G37*
G36*
X7457803Y5976421D02*
X7423917D01*
Y5942535D01*
X7438350Y5948514D01*
X7451824Y5961988D01*
X7457803Y5976421D01*
D02*
G37*
G36*
X8536386Y5952020D02*
X8502500D01*
Y5918134D01*
X8516933Y5924113D01*
X8530407Y5937587D01*
X8536386Y5952020D01*
D02*
G37*
G36*
X8477100D02*
X8443214D01*
X8449192Y5937587D01*
X8462667Y5924113D01*
X8477100Y5918134D01*
Y5952020D01*
D02*
G37*
G36*
X8205200Y5689086D02*
Y5655200D01*
X8239086D01*
X8233107Y5669633D01*
X8219633Y5683108D01*
X8205200Y5689086D01*
D02*
G37*
G36*
X8179800D02*
X8165367Y5683108D01*
X8151893Y5669633D01*
X8145914Y5655200D01*
X8179800D01*
Y5689086D01*
D02*
G37*
G36*
X8239086Y5629800D02*
X8205200D01*
Y5595914D01*
X8219633Y5601893D01*
X8233107Y5615367D01*
X8239086Y5629800D01*
D02*
G37*
G36*
X8179800D02*
X8145914D01*
X8151893Y5615367D01*
X8165367Y5601893D01*
X8179800Y5595914D01*
Y5629800D01*
D02*
G37*
G36*
X14751186Y5741350D02*
X14712814D01*
X14675751Y5731419D01*
X14642520Y5712233D01*
X14615387Y5685100D01*
X14596201Y5651870D01*
X14586270Y5614806D01*
Y5576434D01*
X14596201Y5539370D01*
X14615387Y5506140D01*
X14642520Y5479007D01*
X14675751Y5459821D01*
X14712814Y5449890D01*
X14751186D01*
X14788251Y5459821D01*
X14821480Y5479007D01*
X14848613Y5506140D01*
X14867799Y5539370D01*
X14877730Y5576434D01*
Y5614806D01*
X14867799Y5651870D01*
X14848613Y5685100D01*
X14821480Y5712233D01*
X14788251Y5731419D01*
X14751186Y5741350D01*
D02*
G37*
G36*
X10489700Y5106586D02*
Y5072700D01*
X10523586D01*
X10517607Y5087133D01*
X10504133Y5100608D01*
X10489700Y5106586D01*
D02*
G37*
G36*
X10464300D02*
X10449867Y5100608D01*
X10436392Y5087133D01*
X10430414Y5072700D01*
X10464300D01*
Y5106586D01*
D02*
G37*
G36*
X10235700D02*
Y5072700D01*
X10269586D01*
X10263607Y5087133D01*
X10250133Y5100608D01*
X10235700Y5106586D01*
D02*
G37*
G36*
X10210300D02*
X10195867Y5100608D01*
X10182392Y5087133D01*
X10176414Y5072700D01*
X10210300D01*
Y5106586D01*
D02*
G37*
G36*
X9981700D02*
Y5072700D01*
X10015586D01*
X10009607Y5087133D01*
X9996133Y5100608D01*
X9981700Y5106586D01*
D02*
G37*
G36*
X9956300D02*
X9941867Y5100608D01*
X9928392Y5087133D01*
X9922414Y5072700D01*
X9956300D01*
Y5106586D01*
D02*
G37*
G36*
X9727700D02*
Y5072700D01*
X9761586D01*
X9755607Y5087133D01*
X9742133Y5100608D01*
X9727700Y5106586D01*
D02*
G37*
G36*
X10523586Y5047300D02*
X10489700D01*
Y5013414D01*
X10504133Y5019393D01*
X10517607Y5032867D01*
X10523586Y5047300D01*
D02*
G37*
G36*
X10464300D02*
X10430414D01*
X10436392Y5032867D01*
X10449867Y5019393D01*
X10464300Y5013414D01*
Y5047300D01*
D02*
G37*
G36*
X10269586D02*
X10235700D01*
Y5013414D01*
X10250133Y5019393D01*
X10263607Y5032867D01*
X10269586Y5047300D01*
D02*
G37*
G36*
X10210300D02*
X10176414D01*
X10182392Y5032867D01*
X10195867Y5019393D01*
X10210300Y5013414D01*
Y5047300D01*
D02*
G37*
G36*
X10015586D02*
X9981700D01*
Y5013414D01*
X9996133Y5019393D01*
X10009607Y5032867D01*
X10015586Y5047300D01*
D02*
G37*
G36*
X9956300D02*
X9922414D01*
X9928392Y5032867D01*
X9941867Y5019393D01*
X9956300Y5013414D01*
Y5047300D01*
D02*
G37*
G36*
X8205200Y5039086D02*
Y5005200D01*
X8239086D01*
X8233107Y5019633D01*
X8219633Y5033108D01*
X8205200Y5039086D01*
D02*
G37*
G36*
X8179800D02*
X8165367Y5033108D01*
X8151893Y5019633D01*
X8145914Y5005200D01*
X8179800D01*
Y5039086D01*
D02*
G37*
G36*
X16021185Y5240970D02*
X15982814D01*
X15945750Y5231039D01*
X15912520Y5211853D01*
X15885387Y5184720D01*
X15866200Y5151490D01*
X15856270Y5114426D01*
Y5076054D01*
X15866200Y5038990D01*
X15885387Y5005760D01*
X15912520Y4978627D01*
X15945750Y4959441D01*
X15982814Y4949510D01*
X16021185D01*
X16058250Y4959441D01*
X16091479Y4978627D01*
X16118613Y5005760D01*
X16137799Y5038990D01*
X16147729Y5076054D01*
Y5114426D01*
X16137799Y5151490D01*
X16118613Y5184720D01*
X16091479Y5211853D01*
X16058250Y5231039D01*
X16021185Y5240970D01*
D02*
G37*
G36*
X15005186D02*
X14966814D01*
X14929750Y5231039D01*
X14896519Y5211853D01*
X14869386Y5184720D01*
X14850201Y5151490D01*
X14840269Y5114426D01*
Y5076054D01*
X14850201Y5038990D01*
X14869386Y5005760D01*
X14896519Y4978627D01*
X14929750Y4959441D01*
X14966814Y4949510D01*
X15005186D01*
X15042250Y4959441D01*
X15075481Y4978627D01*
X15102612Y5005760D01*
X15121799Y5038990D01*
X15131731Y5076054D01*
Y5114426D01*
X15121799Y5151490D01*
X15102612Y5184720D01*
X15075481Y5211853D01*
X15042250Y5231039D01*
X15005186Y5240970D01*
D02*
G37*
G36*
X8239086Y4979800D02*
X8205200D01*
Y4945914D01*
X8219633Y4951893D01*
X8233107Y4965367D01*
X8239086Y4979800D01*
D02*
G37*
G36*
X8179800D02*
X8145914D01*
X8151893Y4965367D01*
X8165367Y4951893D01*
X8179800Y4945914D01*
Y4979800D01*
D02*
G37*
G36*
X10679860Y4892906D02*
Y4859020D01*
X10713746D01*
X10707768Y4873453D01*
X10694293Y4886927D01*
X10679860Y4892906D01*
D02*
G37*
G36*
X10654460D02*
X10640027Y4886927D01*
X10626553Y4873453D01*
X10620574Y4859020D01*
X10654460D01*
Y4892906D01*
D02*
G37*
G36*
X8492700Y4846586D02*
Y4812700D01*
X8526586D01*
X8520608Y4827133D01*
X8507133Y4840608D01*
X8492700Y4846586D01*
D02*
G37*
G36*
X8467300D02*
X8452867Y4840608D01*
X8439393Y4827133D01*
X8433414Y4812700D01*
X8467300D01*
Y4846586D01*
D02*
G37*
G36*
X10163480Y5715686D02*
X8575280D01*
X8561624Y5712969D01*
X8550047Y5705234D01*
X8522032Y5677220D01*
X8521546D01*
X8505926Y5670749D01*
X8493970Y5658794D01*
X8487500Y5643173D01*
Y5626266D01*
X8493970Y5610646D01*
X8505926Y5598690D01*
X8521546Y5592220D01*
X8538454D01*
X8554074Y5598690D01*
X8566030Y5610646D01*
X8572500Y5626266D01*
Y5626752D01*
X8590062Y5644314D01*
X9213859D01*
X9222345Y5631614D01*
X9220000Y5625953D01*
Y5609046D01*
X9226470Y5593426D01*
X9226814Y5593082D01*
Y5417500D01*
X9229531Y5403844D01*
X9237267Y5392266D01*
X10144766Y4484766D01*
X10156344Y4477031D01*
X10170000Y4474314D01*
X10891981D01*
X10905637Y4477031D01*
X10917214Y4484766D01*
X11005128Y4572680D01*
X11005614D01*
X11021234Y4579150D01*
X11033190Y4591106D01*
X11039660Y4606726D01*
Y4623634D01*
X11033190Y4639254D01*
X11021234Y4651210D01*
X11005614Y4657680D01*
X10988707D01*
X10973086Y4651210D01*
X10961131Y4639254D01*
X10954661Y4623634D01*
Y4623147D01*
X10877199Y4545686D01*
X10184782D01*
X9729892Y5000575D01*
X9732872Y5015556D01*
X9742133Y5019393D01*
X9755607Y5032867D01*
X9761586Y5047300D01*
X9715000D01*
Y5060000D01*
X9702300D01*
Y5106586D01*
X9687867Y5100608D01*
X9674392Y5087133D01*
X9670556Y5077872D01*
X9655575Y5074892D01*
X9298186Y5432281D01*
Y5593082D01*
X9298530Y5593426D01*
X9305000Y5609046D01*
Y5625953D01*
X9302655Y5631614D01*
X9311141Y5644314D01*
X10148699D01*
X10954661Y4838353D01*
Y4837866D01*
X10961131Y4822246D01*
X10973086Y4810290D01*
X10988707Y4803820D01*
X11005614D01*
X11021234Y4810290D01*
X11033190Y4822246D01*
X11039660Y4837866D01*
Y4854774D01*
X11033190Y4870394D01*
X11021234Y4882350D01*
X11005614Y4888820D01*
X11005128D01*
X10188714Y5705234D01*
X10177137Y5712969D01*
X10163480Y5715686D01*
D02*
G37*
G36*
X10713746Y4833620D02*
X10679860D01*
Y4799734D01*
X10694293Y4805713D01*
X10707768Y4819187D01*
X10713746Y4833620D01*
D02*
G37*
G36*
X10654460D02*
X10620574D01*
X10626553Y4819187D01*
X10640027Y4805713D01*
X10654460Y4799734D01*
Y4833620D01*
D02*
G37*
G36*
X8526586Y4787300D02*
X8492700D01*
Y4753414D01*
X8507133Y4759393D01*
X8520608Y4772867D01*
X8526586Y4787300D01*
D02*
G37*
G36*
X8467300D02*
X8433414D01*
X8439393Y4772867D01*
X8452867Y4759393D01*
X8467300Y4753414D01*
Y4787300D01*
D02*
G37*
G36*
X7066457Y4771790D02*
Y4737904D01*
X7100343D01*
X7094365Y4752337D01*
X7080890Y4765811D01*
X7066457Y4771790D01*
D02*
G37*
G36*
X7041057D02*
X7026624Y4765811D01*
X7013150Y4752337D01*
X7007171Y4737904D01*
X7041057D01*
Y4771790D01*
D02*
G37*
G36*
X7100343Y4712504D02*
X7066457D01*
Y4678618D01*
X7080890Y4684596D01*
X7094365Y4698071D01*
X7100343Y4712504D01*
D02*
G37*
G36*
X7041057D02*
X7007171D01*
X7013150Y4698071D01*
X7026624Y4684596D01*
X7041057Y4678618D01*
Y4712504D01*
D02*
G37*
G36*
X9202700Y4674086D02*
Y4640200D01*
X9236586D01*
X9230607Y4654633D01*
X9217133Y4668108D01*
X9202700Y4674086D01*
D02*
G37*
G36*
X10679860Y4661766D02*
Y4627880D01*
X10713746D01*
X10707768Y4642313D01*
X10694293Y4655787D01*
X10679860Y4661766D01*
D02*
G37*
G36*
X10654460D02*
X10640027Y4655787D01*
X10626553Y4642313D01*
X10620574Y4627880D01*
X10654460D01*
Y4661766D01*
D02*
G37*
G36*
X10713746Y4602480D02*
X10679860D01*
Y4568594D01*
X10694293Y4574573D01*
X10707768Y4588047D01*
X10713746Y4602480D01*
D02*
G37*
G36*
X10654460D02*
X10620574D01*
X10626553Y4588047D01*
X10640027Y4574573D01*
X10654460Y4568594D01*
Y4602480D01*
D02*
G37*
G36*
X8240000Y4596306D02*
Y4562420D01*
X8273886D01*
X8267908Y4576853D01*
X8254433Y4590328D01*
X8240000Y4596306D01*
D02*
G37*
G36*
X6760200Y4544086D02*
Y4510200D01*
X6794086D01*
X6788108Y4524633D01*
X6774633Y4538107D01*
X6760200Y4544086D01*
D02*
G37*
G36*
X6734800D02*
X6720367Y4538107D01*
X6706893Y4524633D01*
X6700914Y4510200D01*
X6734800D01*
Y4544086D01*
D02*
G37*
G36*
X7432300Y4539086D02*
X7417867Y4533108D01*
X7404392Y4519633D01*
X7398414Y4505200D01*
X7432300D01*
Y4539086D01*
D02*
G37*
G36*
X8273886Y4537020D02*
X8240000D01*
Y4503134D01*
X8254433Y4509113D01*
X8267908Y4522587D01*
X8273886Y4537020D01*
D02*
G37*
G36*
X7603454Y6052500D02*
X7586546D01*
X7570926Y6046030D01*
X7558970Y6034074D01*
X7552500Y6018454D01*
Y6001546D01*
X7558970Y5985926D01*
X7564412Y5980484D01*
Y5682501D01*
X7564412Y5682500D01*
X7566741Y5670795D01*
X7573371Y5660871D01*
X7694412Y5539830D01*
Y4878652D01*
X7681712Y4873391D01*
X7674074Y4881030D01*
X7658454Y4887500D01*
X7641546D01*
X7625926Y4881030D01*
X7618288Y4873392D01*
X7605588Y4878652D01*
Y5574047D01*
X7603259Y5585752D01*
X7596629Y5595675D01*
X7575000Y5617304D01*
Y5625000D01*
X7568530Y5640620D01*
X7556574Y5652576D01*
X7540954Y5659046D01*
X7524047D01*
X7508426Y5652576D01*
X7496471Y5640620D01*
X7490001Y5625000D01*
Y5608093D01*
X7496471Y5592472D01*
X7508426Y5580517D01*
X7524047Y5574047D01*
X7531742D01*
X7544412Y5561376D01*
Y5548601D01*
X7531712Y5540114D01*
X7525954Y5542500D01*
X7509046D01*
X7493426Y5536030D01*
X7487984Y5530588D01*
X7225000D01*
X7213294Y5528259D01*
X7203371Y5521629D01*
X7203371Y5521628D01*
X6550871Y4869129D01*
X6544241Y4859205D01*
X6541912Y4847500D01*
X6541912Y4847499D01*
Y3706766D01*
X6541912Y3706765D01*
X6544241Y3695060D01*
X6545120Y3693743D01*
X6545000Y3693454D01*
Y3676546D01*
X6551470Y3660926D01*
X6563426Y3648970D01*
X6579046Y3642500D01*
X6595954D01*
X6611574Y3648970D01*
X6623530Y3660926D01*
X6630000Y3676546D01*
Y3693454D01*
X6623530Y3709074D01*
X6611574Y3721030D01*
X6603088Y3724545D01*
Y4834830D01*
X7237670Y5469412D01*
X7487984D01*
X7493426Y5463970D01*
X7509046Y5457500D01*
X7525954D01*
X7531712Y5459885D01*
X7544412Y5451399D01*
Y4810439D01*
X7532679Y4805579D01*
X7492500Y4845758D01*
Y4853454D01*
X7486030Y4869074D01*
X7474074Y4881030D01*
X7458454Y4887500D01*
X7441547D01*
X7425926Y4881030D01*
X7413971Y4869074D01*
X7407501Y4853454D01*
Y4836546D01*
X7413971Y4820926D01*
X7425926Y4808970D01*
X7441547Y4802500D01*
X7449242D01*
X7494412Y4757331D01*
Y4528789D01*
X7481712Y4523528D01*
X7472133Y4533108D01*
X7457700Y4539086D01*
Y4492500D01*
Y4445914D01*
X7472133Y4451893D01*
X7481712Y4461472D01*
X7494412Y4456211D01*
Y4112045D01*
X7485926Y4108530D01*
X7473970Y4096574D01*
X7467500Y4080954D01*
Y4064046D01*
X7473970Y4048426D01*
X7485926Y4036470D01*
X7501546Y4030000D01*
X7518454D01*
X7531712Y4035492D01*
X7544412Y4030215D01*
Y3837670D01*
X7449242Y3742500D01*
X7441546D01*
X7425926Y3736030D01*
X7413970Y3724074D01*
X7407500Y3708454D01*
Y3691546D01*
X7413970Y3675926D01*
X7425926Y3663970D01*
X7441546Y3657500D01*
X7458454D01*
X7474074Y3663970D01*
X7486030Y3675926D01*
X7492500Y3691546D01*
Y3699242D01*
X7596628Y3803371D01*
X7596629Y3803371D01*
X7603259Y3813295D01*
X7605588Y3825000D01*
Y4811348D01*
X7618288Y4816608D01*
X7625926Y4808970D01*
X7641546Y4802500D01*
X7658454D01*
X7674074Y4808970D01*
X7681712Y4816609D01*
X7694412Y4811348D01*
Y3820001D01*
X7694412Y3820000D01*
X7696741Y3808295D01*
X7703371Y3798371D01*
X7877500Y3624242D01*
Y3616546D01*
X7883971Y3600926D01*
X7895926Y3588970D01*
X7911547Y3582500D01*
X7928454D01*
X7944074Y3588970D01*
X7956030Y3600926D01*
X7962500Y3616546D01*
Y3633453D01*
X7956030Y3649074D01*
X7944074Y3661030D01*
X7928454Y3667500D01*
X7920758D01*
X7755588Y3832670D01*
Y5552500D01*
X7753259Y5564205D01*
X7746629Y5574129D01*
X7634937Y5685820D01*
X7635024Y5686258D01*
X7648805Y5690438D01*
X7781912Y5557331D01*
Y4132501D01*
X7781912Y4132500D01*
X7784241Y4120795D01*
X7790871Y4110871D01*
X7877500Y4024242D01*
Y4016546D01*
X7883971Y4000926D01*
X7895926Y3988970D01*
X7911547Y3982500D01*
X7928454D01*
X7944074Y3988970D01*
X7956030Y4000926D01*
X7962500Y4016546D01*
Y4033453D01*
X7956030Y4049074D01*
X7944074Y4061029D01*
X7928454Y4067500D01*
X7920758D01*
X7843088Y4145170D01*
Y4601211D01*
X7855788Y4606472D01*
X7862867Y4599393D01*
X7877300Y4593414D01*
Y4640000D01*
X7902700D01*
Y4593414D01*
X7914113Y4598142D01*
X7926813Y4592480D01*
Y4479417D01*
X7923970Y4476574D01*
X7917500Y4460953D01*
Y4444046D01*
X7923970Y4428426D01*
X7935926Y4416470D01*
X7951546Y4410000D01*
X7968454D01*
X7984074Y4416470D01*
X7996030Y4428426D01*
X8002500Y4444046D01*
Y4460953D01*
X7996030Y4476574D01*
X7987989Y4484615D01*
Y4614660D01*
X7999722Y4619520D01*
X8136912Y4482330D01*
Y3227016D01*
X8131470Y3221574D01*
X8125000Y3205954D01*
Y3189046D01*
X8131470Y3173426D01*
X8143426Y3161470D01*
X8159046Y3155000D01*
X8175954D01*
X8191574Y3161470D01*
X8203530Y3173426D01*
X8210000Y3189046D01*
Y3205954D01*
X8203530Y3221574D01*
X8198088Y3227016D01*
Y4494999D01*
X8198088Y4495000D01*
X8197822Y4496337D01*
X8208953Y4505473D01*
X8214600Y4503134D01*
Y4549720D01*
Y4596306D01*
X8200167Y4590328D01*
X8186693Y4576853D01*
X8179400Y4559248D01*
Y4544318D01*
X8167503Y4538255D01*
X8028088Y4677670D01*
Y4810484D01*
X8033530Y4815926D01*
X8040000Y4831546D01*
Y4848454D01*
X8033530Y4864074D01*
X8021574Y4876030D01*
X8005954Y4882500D01*
X7989046D01*
X7973426Y4876030D01*
X7961470Y4864074D01*
X7955000Y4848454D01*
Y4831546D01*
X7961470Y4815926D01*
X7966912Y4810484D01*
Y4727939D01*
X7955179Y4723079D01*
X7908088Y4770170D01*
Y4820484D01*
X7913530Y4825926D01*
X7920000Y4841546D01*
Y4858454D01*
X7913530Y4874074D01*
X7901574Y4886030D01*
X7885954Y4892500D01*
X7869046D01*
X7855788Y4887008D01*
X7843088Y4892285D01*
Y5570000D01*
X7840759Y5581706D01*
X7834129Y5591629D01*
X7834128Y5591630D01*
X7690072Y5735686D01*
X7692500Y5741546D01*
Y5758454D01*
X7686030Y5774074D01*
X7674074Y5786030D01*
X7658454Y5792500D01*
X7641546D01*
X7638288Y5791150D01*
X7625588Y5799636D01*
Y5980484D01*
X7631030Y5985926D01*
X7637500Y6001546D01*
Y6018454D01*
X7631030Y6034074D01*
X7619074Y6046030D01*
X7603454Y6052500D01*
D02*
G37*
G36*
X6794086Y4484800D02*
X6760200D01*
Y4450914D01*
X6774633Y4456892D01*
X6788108Y4470367D01*
X6794086Y4484800D01*
D02*
G37*
G36*
X6734800D02*
X6700914D01*
X6706893Y4470367D01*
X6720367Y4456892D01*
X6734800Y4450914D01*
Y4484800D01*
D02*
G37*
G36*
X7432300Y4479800D02*
X7398414D01*
X7404392Y4465367D01*
X7417867Y4451893D01*
X7432300Y4445914D01*
Y4479800D01*
D02*
G37*
G36*
X10679860Y4450946D02*
Y4417060D01*
X10713746D01*
X10707768Y4431493D01*
X10694293Y4444967D01*
X10679860Y4450946D01*
D02*
G37*
G36*
X10654460D02*
X10640027Y4444967D01*
X10626553Y4431493D01*
X10620574Y4417060D01*
X10654460D01*
Y4450946D01*
D02*
G37*
G36*
X8340200Y4396586D02*
Y4362700D01*
X8374086D01*
X8368107Y4377133D01*
X8354633Y4390607D01*
X8340200Y4396586D01*
D02*
G37*
G36*
X8314800D02*
X8300367Y4390607D01*
X8286892Y4377133D01*
X8280914Y4362700D01*
X8314800D01*
Y4396586D01*
D02*
G37*
G36*
X10713746Y4391660D02*
X10679860D01*
Y4357774D01*
X10694293Y4363753D01*
X10707768Y4377227D01*
X10713746Y4391660D01*
D02*
G37*
G36*
X10654460D02*
X10620574D01*
X10626553Y4377227D01*
X10640027Y4363753D01*
X10654460Y4357774D01*
Y4391660D01*
D02*
G37*
G36*
X7285954Y4922500D02*
X7269046D01*
X7253426Y4916030D01*
X7241470Y4904074D01*
X7235000Y4888454D01*
Y4880758D01*
X7153371Y4799129D01*
X7146741Y4789205D01*
X7144412Y4777500D01*
X7144412Y4777498D01*
Y4345588D01*
X6694516D01*
X6689074Y4351030D01*
X6673454Y4357500D01*
X6656546D01*
X6640926Y4351030D01*
X6628970Y4339074D01*
X6622500Y4323454D01*
Y4306546D01*
X6628970Y4290926D01*
X6640926Y4278970D01*
X6656546Y4272500D01*
X6673454D01*
X6689074Y4278970D01*
X6694516Y4284412D01*
X7163283D01*
X7163284Y4284412D01*
X7174989Y4286741D01*
X7184913Y4293371D01*
X7196628Y4305086D01*
X7196629Y4305087D01*
X7203259Y4315010D01*
X7205588Y4326716D01*
X7205588Y4326717D01*
Y4764830D01*
X7278258Y4837500D01*
X7285954D01*
X7301574Y4843970D01*
X7313530Y4855926D01*
X7320000Y4871546D01*
Y4888454D01*
X7313530Y4904074D01*
X7301574Y4916030D01*
X7285954Y4922500D01*
D02*
G37*
G36*
X8374086Y4337300D02*
X8340200D01*
Y4303414D01*
X8354633Y4309392D01*
X8368107Y4322867D01*
X8374086Y4337300D01*
D02*
G37*
G36*
X8314800D02*
X8280914D01*
X8286892Y4322867D01*
X8300367Y4309392D01*
X8314800Y4303414D01*
Y4337300D01*
D02*
G37*
G36*
X16021185Y4575490D02*
X15982814D01*
X15945750Y4565559D01*
X15912520Y4546373D01*
X15885387Y4519240D01*
X15866200Y4486010D01*
X15856270Y4448946D01*
Y4410574D01*
X15866200Y4373510D01*
X15885387Y4340280D01*
X15912520Y4313147D01*
X15945750Y4293961D01*
X15982814Y4284030D01*
X16021185D01*
X16058250Y4293961D01*
X16091479Y4313147D01*
X16118613Y4340280D01*
X16137799Y4373510D01*
X16147729Y4410574D01*
Y4448946D01*
X16137799Y4486010D01*
X16118613Y4519240D01*
X16091479Y4546373D01*
X16058250Y4565559D01*
X16021185Y4575490D01*
D02*
G37*
G36*
X15005186D02*
X14966814D01*
X14929750Y4565559D01*
X14896519Y4546373D01*
X14869386Y4519240D01*
X14850201Y4486010D01*
X14840269Y4448946D01*
Y4410574D01*
X14850201Y4373510D01*
X14869386Y4340280D01*
X14896519Y4313147D01*
X14929750Y4293961D01*
X14966814Y4284030D01*
X15005186D01*
X15042250Y4293961D01*
X15075481Y4313147D01*
X15102612Y4340280D01*
X15121799Y4373510D01*
X15131731Y4410574D01*
Y4448946D01*
X15121799Y4486010D01*
X15102612Y4519240D01*
X15075481Y4546373D01*
X15042250Y4565559D01*
X15005186Y4575490D01*
D02*
G37*
G36*
X9178454Y5542500D02*
X9161546D01*
X9145926Y5536030D01*
X9133970Y5524074D01*
X9127500Y5508454D01*
Y5491546D01*
X9133970Y5475926D01*
X9139412Y5470484D01*
Y5380001D01*
X9139412Y5380000D01*
X9141741Y5368295D01*
X9148371Y5358371D01*
X10228371Y4278372D01*
X10228371Y4278371D01*
X10238295Y4271741D01*
X10250000Y4269412D01*
X10892799D01*
X10892800Y4269412D01*
X10904506Y4271741D01*
X10914429Y4278371D01*
X10997918Y4361860D01*
X11005614D01*
X11021234Y4368330D01*
X11033190Y4380286D01*
X11039660Y4395906D01*
Y4412814D01*
X11033190Y4428434D01*
X11021234Y4440390D01*
X11005614Y4446860D01*
X10988707D01*
X10973086Y4440390D01*
X10961131Y4428434D01*
X10954661Y4412814D01*
Y4405118D01*
X10880130Y4330588D01*
X10262670D01*
X9200588Y5392670D01*
Y5470484D01*
X9206030Y5475926D01*
X9212500Y5491546D01*
Y5508454D01*
X9206030Y5524074D01*
X9194074Y5536030D01*
X9178454Y5542500D01*
D02*
G37*
G36*
X10679860Y4237586D02*
Y4203700D01*
X10713746D01*
X10707768Y4218133D01*
X10694293Y4231607D01*
X10679860Y4237586D01*
D02*
G37*
G36*
X10654460D02*
X10640027Y4231607D01*
X10626553Y4218133D01*
X10620574Y4203700D01*
X10654460D01*
Y4237586D01*
D02*
G37*
G36*
X10713746Y4178300D02*
X10679860D01*
Y4144414D01*
X10694293Y4150393D01*
X10707768Y4163867D01*
X10713746Y4178300D01*
D02*
G37*
G36*
X10654460D02*
X10620574D01*
X10626553Y4163867D01*
X10640027Y4150393D01*
X10654460Y4144414D01*
Y4178300D01*
D02*
G37*
G36*
X7998454Y4222500D02*
X7981546D01*
X7965926Y4216030D01*
X7953970Y4204074D01*
X7947500Y4188454D01*
Y4171546D01*
X7953970Y4155926D01*
X7965926Y4143970D01*
X7981546Y4137500D01*
X7998454D01*
X8014074Y4143970D01*
X8026030Y4155926D01*
X8032500Y4171546D01*
Y4188454D01*
X8026030Y4204074D01*
X8014074Y4216030D01*
X7998454Y4222500D01*
D02*
G37*
G36*
X8725954Y5490000D02*
X8709046D01*
X8693426Y5483530D01*
X8681470Y5471574D01*
X8675000Y5455954D01*
Y5439046D01*
X8681470Y5423426D01*
X8693426Y5411470D01*
X8709046Y5405000D01*
X8716742D01*
X10053371Y4068372D01*
X10053371Y4068371D01*
X10063294Y4061741D01*
X10075000Y4059412D01*
X10896159D01*
X10896160Y4059412D01*
X10907866Y4061741D01*
X10917789Y4068371D01*
X10997918Y4148500D01*
X11005614D01*
X11021234Y4154970D01*
X11033190Y4166926D01*
X11039660Y4182546D01*
Y4199454D01*
X11033190Y4215074D01*
X11021234Y4227030D01*
X11005614Y4233500D01*
X10988707D01*
X10973086Y4227030D01*
X10961131Y4215074D01*
X10954661Y4199454D01*
Y4191758D01*
X10883490Y4120588D01*
X10087670D01*
X8760000Y5448258D01*
Y5455954D01*
X8753530Y5471574D01*
X8741574Y5483530D01*
X8725954Y5490000D01*
D02*
G37*
G36*
X10762700Y3996586D02*
Y3962700D01*
X10796586D01*
X10790608Y3977133D01*
X10777133Y3990607D01*
X10762700Y3996586D01*
D02*
G37*
G36*
X10737300D02*
X10722867Y3990607D01*
X10709393Y3977133D01*
X10703414Y3962700D01*
X10737300D01*
Y3996586D01*
D02*
G37*
G36*
X11330200Y3951586D02*
Y3917700D01*
X11364086D01*
X11358107Y3932133D01*
X11344633Y3945608D01*
X11330200Y3951586D01*
D02*
G37*
G36*
X11304800D02*
X11290367Y3945608D01*
X11276892Y3932133D01*
X11270914Y3917700D01*
X11304800D01*
Y3951586D01*
D02*
G37*
G36*
X10796586Y3937300D02*
X10762700D01*
Y3903414D01*
X10777133Y3909392D01*
X10790608Y3922867D01*
X10796586Y3937300D01*
D02*
G37*
G36*
X10737300D02*
X10703414D01*
X10709393Y3922867D01*
X10722867Y3909392D01*
X10737300Y3903414D01*
Y3937300D01*
D02*
G37*
G36*
X11364086Y3892300D02*
X11330200D01*
Y3858414D01*
X11344633Y3864393D01*
X11358107Y3877867D01*
X11364086Y3892300D01*
D02*
G37*
G36*
X11304800D02*
X11270914D01*
X11276892Y3877867D01*
X11290367Y3864393D01*
X11304800Y3858414D01*
Y3892300D01*
D02*
G37*
G36*
X8505954Y5440000D02*
X8489046D01*
X8473426Y5433530D01*
X8461470Y5421574D01*
X8455000Y5405954D01*
Y5389046D01*
X8461470Y5373426D01*
X8461814Y5373082D01*
Y5212500D01*
X8464531Y5198844D01*
X8472266Y5187266D01*
X9844766Y3814766D01*
X9856344Y3807031D01*
X9870000Y3804314D01*
X10900000D01*
X10913656Y3807031D01*
X10925234Y3814766D01*
X11025234Y3914767D01*
X11032970Y3926344D01*
X11035686Y3940000D01*
Y3990582D01*
X11036030Y3990926D01*
X11042500Y4006546D01*
Y4023454D01*
X11036030Y4039074D01*
X11024074Y4051030D01*
X11008454Y4057500D01*
X10991547D01*
X10975926Y4051030D01*
X10963971Y4039074D01*
X10957501Y4023454D01*
Y4006546D01*
X10963971Y3990926D01*
X10964315Y3990582D01*
Y3954782D01*
X10885219Y3875686D01*
X9884782D01*
X9192600Y4567867D01*
X9197461Y4579600D01*
X9199528D01*
X9217133Y4586893D01*
X9230607Y4600367D01*
X9236586Y4614800D01*
X9190000D01*
Y4627500D01*
X9177300D01*
Y4674086D01*
X9162867Y4668108D01*
X9149392Y4654633D01*
X9142100Y4637028D01*
Y4634961D01*
X9130367Y4630100D01*
X8533186Y5227282D01*
Y5373082D01*
X8533530Y5373426D01*
X8540000Y5389046D01*
Y5405954D01*
X8533530Y5421574D01*
X8521574Y5433530D01*
X8505954Y5440000D01*
D02*
G37*
G36*
X14751186Y4075110D02*
X14712814D01*
X14675751Y4065179D01*
X14642520Y4045993D01*
X14615387Y4018860D01*
X14596201Y3985630D01*
X14586270Y3948566D01*
Y3910194D01*
X14596201Y3873130D01*
X14615387Y3839900D01*
X14642520Y3812767D01*
X14675751Y3793581D01*
X14712814Y3783650D01*
X14751186D01*
X14788251Y3793581D01*
X14821480Y3812767D01*
X14848613Y3839900D01*
X14867799Y3873130D01*
X14877730Y3910194D01*
Y3948566D01*
X14867799Y3985630D01*
X14848613Y4018860D01*
X14821480Y4045993D01*
X14788251Y4065179D01*
X14751186Y4075110D01*
D02*
G37*
G36*
X8253252Y4792221D02*
X8236345D01*
X8220725Y4785750D01*
X8208769Y4773795D01*
X8202299Y4758174D01*
Y4741267D01*
X8208769Y4725647D01*
X8220725Y4713691D01*
X8236345Y4707221D01*
X8244041D01*
X8756912Y4194350D01*
Y3399516D01*
X8751470Y3394074D01*
X8745000Y3378453D01*
Y3361546D01*
X8751470Y3345926D01*
X8763426Y3333970D01*
X8779046Y3327500D01*
X8795954D01*
X8811574Y3333970D01*
X8823530Y3345926D01*
X8830000Y3361546D01*
Y3378453D01*
X8823530Y3394074D01*
X8818088Y3399516D01*
Y4207018D01*
X8818088Y4207020D01*
X8815759Y4218725D01*
X8809129Y4228648D01*
X8809128Y4228649D01*
X8287299Y4750479D01*
Y4758174D01*
X8280828Y4773795D01*
X8268873Y4785750D01*
X8253252Y4792221D01*
D02*
G37*
G36*
X16021185Y3574730D02*
X15982814D01*
X15945750Y3564799D01*
X15912520Y3545613D01*
X15885387Y3518480D01*
X15866200Y3485250D01*
X15856270Y3448186D01*
Y3409814D01*
X15866200Y3372750D01*
X15885387Y3339520D01*
X15912520Y3312387D01*
X15945750Y3293201D01*
X15982814Y3283270D01*
X16021185D01*
X16058250Y3293201D01*
X16091479Y3312387D01*
X16118613Y3339520D01*
X16137799Y3372750D01*
X16147729Y3409814D01*
Y3448186D01*
X16137799Y3485250D01*
X16118613Y3518480D01*
X16091479Y3545613D01*
X16058250Y3564799D01*
X16021185Y3574730D01*
D02*
G37*
G36*
X15005186D02*
X14966814D01*
X14929750Y3564799D01*
X14896519Y3545613D01*
X14869386Y3518480D01*
X14850201Y3485250D01*
X14840269Y3448186D01*
Y3409814D01*
X14850201Y3372750D01*
X14869386Y3339520D01*
X14896519Y3312387D01*
X14929750Y3293201D01*
X14966814Y3283270D01*
X15005186D01*
X15042250Y3293201D01*
X15075481Y3312387D01*
X15102612Y3339520D01*
X15121799Y3372750D01*
X15131731Y3409814D01*
Y3448186D01*
X15121799Y3485250D01*
X15102612Y3518480D01*
X15075481Y3545613D01*
X15042250Y3564799D01*
X15005186Y3574730D01*
D02*
G37*
G36*
X16021185Y3051490D02*
X15982814D01*
X15945750Y3041559D01*
X15912520Y3022373D01*
X15885387Y2995240D01*
X15866200Y2962010D01*
X15856270Y2924946D01*
Y2886574D01*
X15866200Y2849510D01*
X15885387Y2816280D01*
X15912520Y2789147D01*
X15945750Y2769961D01*
X15982814Y2760030D01*
X16021185D01*
X16058250Y2769961D01*
X16091479Y2789147D01*
X16118613Y2816280D01*
X16137799Y2849510D01*
X16147729Y2886574D01*
Y2924946D01*
X16137799Y2962010D01*
X16118613Y2995240D01*
X16091479Y3022373D01*
X16058250Y3041559D01*
X16021185Y3051490D01*
D02*
G37*
G36*
X15005186D02*
X14966814D01*
X14929750Y3041559D01*
X14896519Y3022373D01*
X14869386Y2995240D01*
X14850201Y2962010D01*
X14840269Y2924946D01*
Y2886574D01*
X14850201Y2849510D01*
X14869386Y2816280D01*
X14896519Y2789147D01*
X14929750Y2769961D01*
X14966814Y2760030D01*
X15005186D01*
X15042250Y2769961D01*
X15075481Y2789147D01*
X15102612Y2816280D01*
X15121799Y2849510D01*
X15131731Y2886574D01*
Y2924946D01*
X15121799Y2962010D01*
X15102612Y2995240D01*
X15075481Y3022373D01*
X15042250Y3041559D01*
X15005186Y3051490D01*
D02*
G37*
G36*
X14751186Y2551110D02*
X14712814D01*
X14675751Y2541179D01*
X14642520Y2521993D01*
X14615387Y2494860D01*
X14596201Y2461630D01*
X14586270Y2424566D01*
Y2386194D01*
X14596201Y2349130D01*
X14615387Y2315900D01*
X14642520Y2288767D01*
X14675751Y2269581D01*
X14712814Y2259650D01*
X14751186D01*
X14788251Y2269581D01*
X14821480Y2288767D01*
X14848613Y2315900D01*
X14867799Y2349130D01*
X14877730Y2386194D01*
Y2424566D01*
X14867799Y2461630D01*
X14848613Y2494860D01*
X14821480Y2521993D01*
X14788251Y2541179D01*
X14751186Y2551110D01*
D02*
G37*
G36*
X16021185Y2050730D02*
X15982814D01*
X15945750Y2040799D01*
X15912520Y2021613D01*
X15885387Y1994480D01*
X15866200Y1961250D01*
X15856270Y1924186D01*
Y1885814D01*
X15866200Y1848750D01*
X15885387Y1815520D01*
X15912520Y1788387D01*
X15945750Y1769201D01*
X15982814Y1759270D01*
X16021185D01*
X16058250Y1769201D01*
X16091479Y1788387D01*
X16118613Y1815520D01*
X16137799Y1848750D01*
X16147729Y1885814D01*
Y1924186D01*
X16137799Y1961250D01*
X16118613Y1994480D01*
X16091479Y2021613D01*
X16058250Y2040799D01*
X16021185Y2050730D01*
D02*
G37*
G36*
X15005186D02*
X14966814D01*
X14929750Y2040799D01*
X14896519Y2021613D01*
X14869386Y1994480D01*
X14850201Y1961250D01*
X14840269Y1924186D01*
Y1885814D01*
X14850201Y1848750D01*
X14869386Y1815520D01*
X14896519Y1788387D01*
X14929750Y1769201D01*
X14966814Y1759270D01*
X15005186D01*
X15042250Y1769201D01*
X15075481Y1788387D01*
X15102612Y1815520D01*
X15121799Y1848750D01*
X15131731Y1885814D01*
Y1924186D01*
X15121799Y1961250D01*
X15102612Y1994480D01*
X15075481Y2021613D01*
X15042250Y2040799D01*
X15005186Y2050730D01*
D02*
G37*
G36*
X2720010Y1044900D02*
X2717700D01*
Y905200D01*
X2857400D01*
Y907510D01*
X2851543Y936954D01*
X2840055Y964689D01*
X2823377Y989650D01*
X2802149Y1010877D01*
X2777189Y1027555D01*
X2749453Y1039043D01*
X2720010Y1044900D01*
D02*
G37*
G36*
X2692300D02*
X2689990D01*
X2660546Y1039043D01*
X2632811Y1027555D01*
X2607851Y1010877D01*
X2586623Y989650D01*
X2569945Y964689D01*
X2558457Y936954D01*
X2552600Y907510D01*
Y905200D01*
X2692300D01*
Y1044900D01*
D02*
G37*
G36*
X4724349Y1039500D02*
X4685643D01*
X4648256Y1029482D01*
X4614736Y1010129D01*
X4587367Y982760D01*
X4568014Y949240D01*
X4557996Y911853D01*
Y873147D01*
X4568014Y835760D01*
X4587367Y802240D01*
X4614736Y774871D01*
X4648256Y755518D01*
X4685643Y745500D01*
X4724349D01*
X4761736Y755518D01*
X4795256Y774871D01*
X4822625Y802240D01*
X4841978Y835760D01*
X4851996Y873147D01*
Y911853D01*
X4841978Y949240D01*
X4822625Y982760D01*
X4795256Y1010129D01*
X4761736Y1029482D01*
X4724349Y1039500D01*
D02*
G37*
G36*
X852004D02*
X558004D01*
Y745500D01*
X852004D01*
Y1039500D01*
D02*
G37*
G36*
X2857400Y879800D02*
X2717700D01*
Y740100D01*
X2720010D01*
X2749453Y745957D01*
X2777189Y757445D01*
X2802149Y774123D01*
X2823377Y795351D01*
X2840055Y820312D01*
X2851543Y848047D01*
X2857400Y877490D01*
Y879800D01*
D02*
G37*
G36*
X2692300D02*
X2552600D01*
Y877490D01*
X2558457Y848047D01*
X2569945Y820312D01*
X2586623Y795351D01*
X2607851Y774123D01*
X2632811Y757445D01*
X2660546Y745957D01*
X2689990Y740100D01*
X2692300D01*
Y879800D01*
D02*
G37*
G36*
X9100610Y775412D02*
X9096799D01*
Y662700D01*
X9209512D01*
Y666511D01*
X9200965Y698408D01*
X9184455Y727005D01*
X9161105Y750355D01*
X9132507Y766866D01*
X9100610Y775412D01*
D02*
G37*
G36*
X9071399D02*
X9067589D01*
X9035692Y766866D01*
X9007094Y750355D01*
X8983744Y727005D01*
X8967234Y698408D01*
X8958687Y666511D01*
Y662700D01*
X9071399D01*
Y775412D01*
D02*
G37*
G36*
X13205811Y767632D02*
X13201999D01*
Y654920D01*
X13314711D01*
Y658731D01*
X13306165Y690628D01*
X13289655Y719225D01*
X13266304Y742575D01*
X13237708Y759086D01*
X13205811Y767632D01*
D02*
G37*
G36*
X13176599D02*
X13172787D01*
X13140891Y759086D01*
X13112294Y742575D01*
X13088943Y719225D01*
X13072433Y690628D01*
X13063885Y658731D01*
Y654920D01*
X13176599D01*
Y767632D01*
D02*
G37*
G36*
X11837410D02*
X11833599D01*
Y654920D01*
X11946312D01*
Y658731D01*
X11937765Y690628D01*
X11921254Y719225D01*
X11897904Y742575D01*
X11869307Y759086D01*
X11837410Y767632D01*
D02*
G37*
G36*
X11808199D02*
X11804388D01*
X11772492Y759086D01*
X11743894Y742575D01*
X11720544Y719225D01*
X11704033Y690628D01*
X11695487Y658731D01*
Y654920D01*
X11808199D01*
Y767632D01*
D02*
G37*
G36*
X10469010D02*
X10465199D01*
Y654920D01*
X10577912D01*
Y658731D01*
X10569365Y690628D01*
X10552854Y719225D01*
X10529504Y742575D01*
X10500907Y759086D01*
X10469010Y767632D01*
D02*
G37*
G36*
X10439799D02*
X10435989D01*
X10404092Y759086D01*
X10375494Y742575D01*
X10352144Y719225D01*
X10335633Y690628D01*
X10327087Y658731D01*
Y654920D01*
X10439799D01*
Y767632D01*
D02*
G37*
G36*
X7732210D02*
X7728400D01*
Y654920D01*
X7841112D01*
Y658731D01*
X7832565Y690628D01*
X7816055Y719225D01*
X7792705Y742575D01*
X7764107Y759086D01*
X7732210Y767632D01*
D02*
G37*
G36*
X7703000D02*
X7699189D01*
X7667292Y759086D01*
X7638694Y742575D01*
X7615344Y719225D01*
X7598834Y690628D01*
X7590287Y658731D01*
Y654920D01*
X7703000D01*
Y767632D01*
D02*
G37*
G36*
X6363810D02*
X6360000D01*
Y654920D01*
X6472712D01*
Y658731D01*
X6464166Y690628D01*
X6447655Y719225D01*
X6424305Y742575D01*
X6395707Y759086D01*
X6363810Y767632D01*
D02*
G37*
G36*
X6334600D02*
X6330789D01*
X6298892Y759086D01*
X6270295Y742575D01*
X6246945Y719225D01*
X6230434Y690628D01*
X6221887Y658731D01*
Y654920D01*
X6334600D01*
Y767632D01*
D02*
G37*
G36*
X9607899Y770012D02*
X9576300D01*
X9545776Y761834D01*
X9518410Y746034D01*
X9496066Y723689D01*
X9480266Y696323D01*
X9472087Y665800D01*
Y634200D01*
X9480266Y603677D01*
X9496066Y576311D01*
X9518410Y553966D01*
X9545776Y538166D01*
X9576300Y529988D01*
X9607899D01*
X9638422Y538166D01*
X9665789Y553966D01*
X9688133Y576311D01*
X9703933Y603677D01*
X9712112Y634200D01*
Y665800D01*
X9703933Y696323D01*
X9688133Y723689D01*
X9665789Y746034D01*
X9638422Y761834D01*
X9607899Y770012D01*
D02*
G37*
G36*
X9209512Y637300D02*
X9096799D01*
Y524587D01*
X9100610D01*
X9132507Y533134D01*
X9161105Y549645D01*
X9184455Y572995D01*
X9200965Y601592D01*
X9209512Y633489D01*
Y637300D01*
D02*
G37*
G36*
X9071399D02*
X8958687D01*
Y633489D01*
X8967234Y601592D01*
X8983744Y572995D01*
X9007094Y549645D01*
X9035692Y533134D01*
X9067589Y524587D01*
X9071399D01*
Y637300D01*
D02*
G37*
G36*
X13713100Y762232D02*
X13681499D01*
X13650977Y754054D01*
X13623610Y738254D01*
X13601265Y715909D01*
X13585464Y688543D01*
X13577287Y658020D01*
Y626420D01*
X13585464Y595897D01*
X13601265Y568530D01*
X13623610Y546186D01*
X13650977Y530386D01*
X13681499Y522207D01*
X13713100D01*
X13743622Y530386D01*
X13770988Y546186D01*
X13793333Y568530D01*
X13809132Y595897D01*
X13817311Y626420D01*
Y658020D01*
X13809132Y688543D01*
X13793333Y715909D01*
X13770988Y738254D01*
X13743622Y754054D01*
X13713100Y762232D01*
D02*
G37*
G36*
X12344699D02*
X12313099D01*
X12282576Y754054D01*
X12255210Y738254D01*
X12232865Y715909D01*
X12217065Y688543D01*
X12208887Y658020D01*
Y626420D01*
X12217065Y595897D01*
X12232865Y568530D01*
X12255210Y546186D01*
X12282576Y530386D01*
X12313099Y522207D01*
X12344699D01*
X12375222Y530386D01*
X12402589Y546186D01*
X12424933Y568530D01*
X12440733Y595897D01*
X12448912Y626420D01*
Y658020D01*
X12440733Y688543D01*
X12424933Y715909D01*
X12402589Y738254D01*
X12375222Y754054D01*
X12344699Y762232D01*
D02*
G37*
G36*
X10976299D02*
X10944699D01*
X10914176Y754054D01*
X10886810Y738254D01*
X10864465Y715909D01*
X10848666Y688543D01*
X10840487Y658020D01*
Y626420D01*
X10848666Y595897D01*
X10864465Y568530D01*
X10886810Y546186D01*
X10914176Y530386D01*
X10944699Y522207D01*
X10976299D01*
X11006822Y530386D01*
X11034189Y546186D01*
X11056533Y568530D01*
X11072333Y595897D01*
X11080512Y626420D01*
Y658020D01*
X11072333Y688543D01*
X11056533Y715909D01*
X11034189Y738254D01*
X11006822Y754054D01*
X10976299Y762232D01*
D02*
G37*
G36*
X8239499D02*
X8207900D01*
X8177377Y754054D01*
X8150010Y738254D01*
X8127666Y715909D01*
X8111866Y688543D01*
X8103687Y658020D01*
Y626420D01*
X8111866Y595897D01*
X8127666Y568530D01*
X8150010Y546186D01*
X8177377Y530386D01*
X8207900Y522207D01*
X8239499D01*
X8270023Y530386D01*
X8297389Y546186D01*
X8319733Y568530D01*
X8335533Y595897D01*
X8343712Y626420D01*
Y658020D01*
X8335533Y688543D01*
X8319733Y715909D01*
X8297389Y738254D01*
X8270023Y754054D01*
X8239499Y762232D01*
D02*
G37*
G36*
X6871100D02*
X6839500D01*
X6808977Y754054D01*
X6781610Y738254D01*
X6759266Y715909D01*
X6743466Y688543D01*
X6735287Y658020D01*
Y626420D01*
X6743466Y595897D01*
X6759266Y568530D01*
X6781610Y546186D01*
X6808977Y530386D01*
X6839500Y522207D01*
X6871100D01*
X6901623Y530386D01*
X6928989Y546186D01*
X6951334Y568530D01*
X6967133Y595897D01*
X6975312Y626420D01*
Y658020D01*
X6967133Y688543D01*
X6951334Y715909D01*
X6928989Y738254D01*
X6901623Y754054D01*
X6871100Y762232D01*
D02*
G37*
G36*
X13314711Y629520D02*
X13201999D01*
Y516807D01*
X13205811D01*
X13237708Y525354D01*
X13266304Y541865D01*
X13289655Y565215D01*
X13306165Y593812D01*
X13314711Y625709D01*
Y629520D01*
D02*
G37*
G36*
X13176599D02*
X13063885D01*
Y625709D01*
X13072433Y593812D01*
X13088943Y565215D01*
X13112294Y541865D01*
X13140891Y525354D01*
X13172787Y516807D01*
X13176599D01*
Y629520D01*
D02*
G37*
G36*
X11946312D02*
X11833599D01*
Y516807D01*
X11837410D01*
X11869307Y525354D01*
X11897904Y541865D01*
X11921254Y565215D01*
X11937765Y593812D01*
X11946312Y625709D01*
Y629520D01*
D02*
G37*
G36*
X11808199D02*
X11695487D01*
Y625709D01*
X11704033Y593812D01*
X11720544Y565215D01*
X11743894Y541865D01*
X11772492Y525354D01*
X11804388Y516807D01*
X11808199D01*
Y629520D01*
D02*
G37*
G36*
X10577912D02*
X10465199D01*
Y516807D01*
X10469010D01*
X10500907Y525354D01*
X10529504Y541865D01*
X10552854Y565215D01*
X10569365Y593812D01*
X10577912Y625709D01*
Y629520D01*
D02*
G37*
G36*
X10439799D02*
X10327087D01*
Y625709D01*
X10335633Y593812D01*
X10352144Y565215D01*
X10375494Y541865D01*
X10404092Y525354D01*
X10435989Y516807D01*
X10439799D01*
Y629520D01*
D02*
G37*
G36*
X7841112D02*
X7728400D01*
Y516807D01*
X7732210D01*
X7764107Y525354D01*
X7792705Y541865D01*
X7816055Y565215D01*
X7832565Y593812D01*
X7841112Y625709D01*
Y629520D01*
D02*
G37*
G36*
X7703000D02*
X7590287D01*
Y625709D01*
X7598834Y593812D01*
X7615344Y565215D01*
X7638694Y541865D01*
X7667292Y525354D01*
X7699189Y516807D01*
X7703000D01*
Y629520D01*
D02*
G37*
G36*
X6472712D02*
X6360000D01*
Y516807D01*
X6363810D01*
X6395707Y525354D01*
X6424305Y541865D01*
X6447655Y565215D01*
X6464166Y593812D01*
X6472712Y625709D01*
Y629520D01*
D02*
G37*
G36*
X6334600D02*
X6221887D01*
Y625709D01*
X6230434Y593812D01*
X6246945Y565215D01*
X6270295Y541865D01*
X6298892Y525354D01*
X6330789Y516807D01*
X6334600D01*
Y629520D01*
D02*
G37*
G36*
X763100Y9670233D02*
X731500D01*
X700977Y9662054D01*
X673611Y9646254D01*
X651266Y9623910D01*
X635466Y9596543D01*
X627288Y9566020D01*
Y9534420D01*
X635466Y9503897D01*
X651266Y9476531D01*
X673611Y9454186D01*
X700977Y9438387D01*
X731500Y9430208D01*
X763100D01*
X793623Y9438387D01*
X820989Y9454186D01*
X843334Y9476531D01*
X859134Y9503897D01*
X867312Y9534420D01*
Y9566020D01*
X859134Y9596543D01*
X843334Y9623910D01*
X820989Y9646254D01*
X793623Y9662054D01*
X763100Y9670233D01*
D02*
G37*
G36*
X763811Y9167633D02*
X760000D01*
Y9054920D01*
X872713D01*
Y9058731D01*
X864166Y9090628D01*
X847655Y9119225D01*
X824305Y9142575D01*
X795708Y9159086D01*
X763811Y9167633D01*
D02*
G37*
G36*
X734600D02*
X730789D01*
X698892Y9159086D01*
X670295Y9142575D01*
X646945Y9119225D01*
X630434Y9090628D01*
X621888Y9058731D01*
Y9054920D01*
X734600D01*
Y9167633D01*
D02*
G37*
G36*
X872713Y9029520D02*
X760000D01*
Y8916808D01*
X763811D01*
X795708Y8925354D01*
X824305Y8941865D01*
X847655Y8965215D01*
X864166Y8993813D01*
X872713Y9025709D01*
Y9029520D01*
D02*
G37*
G36*
X734600D02*
X621888D01*
Y9025709D01*
X630434Y8993813D01*
X646945Y8965215D01*
X670295Y8941865D01*
X698892Y8925354D01*
X730789Y8916808D01*
X734600D01*
Y9029520D01*
D02*
G37*
G36*
X2997900Y8505400D02*
X2905200D01*
Y8412700D01*
X2997900D01*
Y8505400D01*
D02*
G37*
G36*
X2879800D02*
X2787100D01*
Y8412700D01*
X2879800D01*
Y8505400D01*
D02*
G37*
G36*
X3655665Y8600000D02*
X3629335D01*
X3603902Y8593185D01*
X3581099Y8580019D01*
X3562480Y8561401D01*
X3549315Y8538598D01*
X3542500Y8513165D01*
Y8486834D01*
X3549315Y8461401D01*
X3562480Y8438599D01*
X3581099Y8419980D01*
X3603902Y8406815D01*
X3629335Y8400000D01*
X3655665D01*
X3681098Y8406815D01*
X3703901Y8419980D01*
X3722520Y8438599D01*
X3735685Y8461401D01*
X3742500Y8486834D01*
Y8513165D01*
X3735685Y8538598D01*
X3722520Y8561401D01*
X3703901Y8580019D01*
X3681098Y8593185D01*
X3655665Y8600000D01*
D02*
G37*
G36*
X2997900Y8387300D02*
X2905200D01*
Y8294600D01*
X2997900D01*
Y8387300D01*
D02*
G37*
G36*
X2879800D02*
X2787100D01*
Y8294600D01*
X2879800D01*
Y8387300D01*
D02*
G37*
G36*
X4630200Y8010186D02*
Y7932700D01*
X4707686D01*
X4701739Y7954893D01*
X4689838Y7975507D01*
X4673007Y7992338D01*
X4652393Y8004239D01*
X4630200Y8010186D01*
D02*
G37*
G36*
X4604800Y8010186D02*
X4582607Y8004239D01*
X4561993Y7992338D01*
X4545162Y7975507D01*
X4533261Y7954893D01*
X4527314Y7932700D01*
X4604800D01*
Y8010186D01*
D02*
G37*
G36*
Y7907300D02*
X4527314D01*
X4533261Y7885107D01*
X4545162Y7864493D01*
X4561993Y7847662D01*
X4582607Y7835761D01*
X4604800Y7829814D01*
Y7907300D01*
D02*
G37*
G36*
X4707686D02*
X4630200D01*
Y7829814D01*
X4652393Y7835761D01*
X4673007Y7847662D01*
X4689838Y7864493D01*
X4701739Y7885107D01*
X4707686Y7907300D01*
D02*
G37*
%LPD*%
D27*
X2892500Y8400000D02*
X3440000Y7852500D01*
X2250280Y9042220D02*
X2892500Y8400000D01*
X747300Y9042220D02*
X2250280D01*
X4614794Y7920000D02*
X4617500D01*
X3440000Y7852500D02*
X4547294D01*
X4614794Y7920000D01*
X5936722Y7999220D02*
X5957502Y8020000D01*
X4620206Y7920000D02*
X4677706Y7977500D01*
X5838210D01*
X5859931Y7999220D01*
X5936722D01*
X8167500Y8020000D02*
X8320000Y7867500D01*
X6957500Y8020000D02*
X8167500D01*
D28*
X7510000Y4072500D02*
Y4079265D01*
X7525000Y4094265D02*
Y4770000D01*
X7450000Y4845000D02*
X7525000Y4770000D01*
X7510000Y4079265D02*
X7525000Y4094265D01*
X7957401Y4455099D02*
X7960000Y4452500D01*
X7948651Y4686349D02*
Y4686349D01*
X7877500Y4757500D02*
X7948651Y4686349D01*
Y4686349D02*
X7957401Y4677598D01*
Y4455099D02*
Y4677598D01*
X7997500Y4665000D02*
Y4840000D01*
X8167500Y3197500D02*
Y4495000D01*
X7997500Y4665000D02*
X8167500Y4495000D01*
X7877500Y4757500D02*
Y4850000D01*
X6572500Y3706765D02*
X6587500Y3691765D01*
X6572500Y4847500D02*
X7225000Y5500000D01*
X6587500Y3685000D02*
Y3691765D01*
X6572500Y3706765D02*
Y4847500D01*
X6665000Y4315000D02*
X7163284D01*
X7175000Y4326716D02*
Y4777500D01*
X7163284Y4315000D02*
X7175000Y4326716D01*
Y4777500D02*
X7277500Y4880000D01*
X7225000Y5500000D02*
X7517500D01*
X6367500Y3510000D02*
X6632500D01*
X6700000Y3577500D01*
X6215000Y3662500D02*
X6367500Y3510000D01*
X6700000Y3577500D02*
Y3700000D01*
X6215000Y3662500D02*
Y5815000D01*
X6855000Y6455000D01*
X7760000D01*
X7960000Y6025000D02*
Y6255000D01*
X7760000Y6455000D02*
X7960000Y6255000D01*
X6471390Y3778610D02*
Y5743890D01*
X6947500Y6220000D01*
X7702500D02*
X7750000Y6172500D01*
X6947500Y6220000D02*
X7702500D01*
X7750000Y6010000D02*
Y6172500D01*
X6365000Y5800000D02*
X6870000Y6305000D01*
X6365000Y3987500D02*
Y5800000D01*
X6870000Y6305000D02*
X7740000D01*
X7892500Y6152500D01*
Y6007500D02*
Y6152500D01*
X6797500Y5850000D02*
X7190000D01*
X7475000Y6135000D01*
X7522500D01*
X7654783Y5727717D02*
Y5745217D01*
X7650000Y5750000D02*
X7654783Y5745217D01*
Y5727717D02*
X7812500Y5570000D01*
X10075000Y4090000D02*
X10896160D01*
X10997160Y4191000D01*
X8717500Y5447500D02*
X10075000Y4090000D01*
X10250000Y4300000D02*
X10892800D01*
X10997160Y4404360D01*
X9170000Y5380000D02*
X10250000Y4300000D01*
X9170000Y5380000D02*
Y5500000D01*
X8787500Y3370000D02*
Y4207020D01*
X8244799Y4749721D02*
X8787500Y4207020D01*
X7575000Y3825000D02*
Y5574047D01*
X7532500Y5616546D02*
X7575000Y5574047D01*
X7812500Y4132500D02*
Y5570000D01*
Y4132500D02*
X7920000Y4025000D01*
X7725000Y3820000D02*
X7920000Y3625000D01*
X7595000Y5682500D02*
X7725000Y5552500D01*
Y3820000D02*
Y5552500D01*
X7595000Y5682500D02*
Y6010000D01*
X7450000Y3700000D02*
X7575000Y3825000D01*
D29*
X7798960Y7346460D02*
X8320000Y7867500D01*
X7887500Y7037500D02*
Y7180940D01*
X7798960Y7269480D02*
X7887500Y7180940D01*
X7806580Y6956580D02*
X7887500Y7037500D01*
X7806580Y6878320D02*
Y6956580D01*
X7798960Y7269480D02*
Y7346460D01*
X8497500Y5212500D02*
Y5397500D01*
Y5212500D02*
X9870000Y3840000D01*
X10900000D01*
X11000000Y3940000D02*
Y4015000D01*
X10900000Y3840000D02*
X11000000Y3940000D01*
X8530000Y5634720D02*
X8575280Y5680000D01*
X10163480D01*
X10997160Y4846320D01*
X9262500Y5417500D02*
Y5617500D01*
X10170000Y4510000D02*
X10891981D01*
X9262500Y5417500D02*
X10170000Y4510000D01*
X10891981D02*
X10997160Y4615180D01*
D36*
X9482500Y8872500D02*
D03*
X8784000Y8243494D02*
D03*
D37*
X3842285Y7087154D02*
D03*
X2705000Y892500D02*
D03*
X4704996D02*
D03*
X1542290Y7087154D02*
D03*
D38*
X705004Y892500D02*
D03*
D39*
X10452499Y642220D02*
D03*
X10960499D02*
D03*
X13697299D02*
D03*
X13189299D02*
D03*
X6347300D02*
D03*
X6855300D02*
D03*
X7715700D02*
D03*
X8223700D02*
D03*
X9084099Y650000D02*
D03*
X9592099D02*
D03*
X11820899Y642220D02*
D03*
X12328899D02*
D03*
X17500000Y9104630D02*
D03*
Y8596630D02*
D03*
Y7481570D02*
D03*
Y6973570D02*
D03*
Y5939790D02*
D03*
Y5431790D02*
D03*
Y4298950D02*
D03*
Y3790950D02*
D03*
Y2688590D02*
D03*
Y2180590D02*
D03*
X747300Y9550220D02*
D03*
Y9042220D02*
D03*
D40*
X10057500Y9458750D02*
D03*
Y8081250D02*
D03*
D41*
X572300Y8072220D02*
D03*
Y8412220D02*
D03*
X1922300D02*
D03*
Y8072220D02*
D03*
D42*
X2892500Y8400000D02*
D03*
D43*
X8320000Y7867500D02*
D03*
X4617500Y7920000D02*
D03*
D44*
X8320000Y9367500D02*
D03*
X4617500Y9420000D02*
D03*
D45*
X14732001Y3929380D02*
D03*
X14986000Y4429760D02*
D03*
X16002000D02*
D03*
X14986000Y3429000D02*
D03*
X16002000D02*
D03*
X14732001Y2405380D02*
D03*
X14986000Y2905760D02*
D03*
X16002000D02*
D03*
X14986000Y1905000D02*
D03*
X16002000D02*
D03*
X14650275Y8798307D02*
D03*
X14904276Y9298687D02*
D03*
X15920274D02*
D03*
X14904276Y8297927D02*
D03*
X15920274D02*
D03*
X14732001Y7231380D02*
D03*
X14986000Y7731760D02*
D03*
X16002000D02*
D03*
X14986000Y6731000D02*
D03*
X16002000D02*
D03*
X14732001Y5595620D02*
D03*
X14986000Y6096000D02*
D03*
X16002000D02*
D03*
X14986000Y5095240D02*
D03*
X16002000D02*
D03*
D46*
X5957502Y8020000D02*
D03*
X6957500Y9219998D02*
D03*
Y8020000D02*
D03*
D47*
X3642500Y8500000D02*
D03*
D48*
X5957502Y9219998D02*
D03*
D49*
X7798960Y7269480D02*
D03*
X7806580Y6878320D02*
D03*
X7510000Y4072500D02*
D03*
X7450000Y4845000D02*
D03*
X7650000D02*
D03*
X7990000Y4180000D02*
D03*
X7960000Y4452500D02*
D03*
X7890000Y4640000D02*
D03*
X7877500Y4850000D02*
D03*
X6637500Y4205000D02*
D03*
X6665000Y4315000D02*
D03*
X7277500Y4880000D02*
D03*
X7892500Y6007500D02*
D03*
X7517500Y5500000D02*
D03*
X7960000Y6025000D02*
D03*
X6471390Y3778610D02*
D03*
X6700000Y3700000D02*
D03*
X6587500Y3685000D02*
D03*
X6365000Y3987500D02*
D03*
X7411217Y5989121D02*
D03*
X7650000Y5750000D02*
D03*
X7750000Y6010000D02*
D03*
X9262500Y5617500D02*
D03*
X9170000Y5500000D02*
D03*
X8717500Y5447500D02*
D03*
X8497500Y5397500D02*
D03*
X8530000Y5634720D02*
D03*
X10667160Y4191000D02*
D03*
X11000000Y4015000D02*
D03*
X10997160Y4191000D02*
D03*
Y4404360D02*
D03*
Y4615180D02*
D03*
Y4846320D02*
D03*
X8167500Y3197500D02*
D03*
X8787500Y3370000D02*
D03*
X7053757Y4725204D02*
D03*
X7445000Y4492500D02*
D03*
X6747500Y4497500D02*
D03*
X8480000Y4800000D02*
D03*
X8227300Y4549720D02*
D03*
X7997500Y4840000D02*
D03*
X8244799Y4749721D02*
D03*
X7532500Y5616546D02*
D03*
X7595000Y6010000D02*
D03*
X9190000Y4627500D02*
D03*
X6947500Y6015000D02*
D03*
X7057300Y4992221D02*
D03*
X6797500Y5850000D02*
D03*
X7522500Y6135000D02*
D03*
X7872500Y4387500D02*
D03*
X6850000Y4867500D02*
D03*
X8327500Y4350000D02*
D03*
X7450000Y3700000D02*
D03*
X7127725Y3617500D02*
D03*
X7315225Y4157500D02*
D03*
X7467500Y4172500D02*
D03*
X6772500Y4222500D02*
D03*
X6850000Y4250000D02*
D03*
X11317500Y3905000D02*
D03*
X10477000Y5060000D02*
D03*
X8192500Y5642500D02*
D03*
Y4992500D02*
D03*
X7635000Y6100000D02*
D03*
X7630000Y4105000D02*
D03*
X7920000Y3625000D02*
D03*
Y4025000D02*
D03*
X9715000Y5060000D02*
D03*
X9969000D02*
D03*
X10223000D02*
D03*
X7419750Y6383358D02*
D03*
X8489800Y5964720D02*
D03*
X10750000Y3950000D02*
D03*
X10667160Y4404360D02*
D03*
Y4615180D02*
D03*
Y4846320D02*
D03*
%TF.MD5,a1fc51b31cba110eb97d412305a7b3d2*%
M02*
